<?xml version="1.0" encoding="UTF-8"?>
<svg viewBox="0 0 65 65" xmlns="http://www.w3.org/2000/svg">
<path d="m60.505 28.092c0-1.1935 0.9675-2.1609 2.1609-2.1609 1.1935 0 2.1609 0.9674 2.1609 2.1609v8.6436c0 1.1934-0.9674 2.1609-2.1609 2.1609-1.1934 0-2.1609-0.9675-2.1609-2.1609v-2.1609h-4.3218c-0.4844 4.7793-2.4056 9.2997-5.5103 12.965l3.0901 3.2197 1.5342-1.5342c0.8574-0.7342 2.1354-0.6849 2.9336 0.1133s0.8475 2.0762 0.1133 2.9336l-3.0901 3.1765-3.0469 3.0469c-0.8428 0.8378-2.204 0.8378-3.0468 0-0.8379-0.8429-0.8379-2.2041 0-3.0469l1.5342-1.5342-3.1549-3.1334c-3.679 3.0657-8.1981 4.9487-12.965 5.4023v4.3218h2.1609c1.1934 0 2.1609 0.9675 2.1609 2.1609 0 1.1935-0.9675 2.1609-2.1609 2.1609h-8.6436c-1.1935 0-2.1609-0.9674-2.1609-2.1609 0-1.1934 0.9674-2.1609 2.1609-2.1609h2.1609v-4.3218c-4.7794-0.4844-9.2998-2.4056-12.966-5.5103l-3.2197 3.0901 1.5342 1.5342c0.8379 0.8429 0.8379 2.2041 0 3.0469-0.8428 0.8378-2.204 0.8378-3.0468 0l-3.0685-3.0253-3.0037-3.0468c-0.67986-0.5026-1.0042-1.3554-0.83011-2.1827 0.1741-0.8274 0.81468-1.4771 1.6394-1.663 0.82474-0.186 1.6822 0.1262 2.1944 0.7988l1.5342 1.5342 3.1333-3.2197c-3.0657-3.679-4.9486-8.1981-5.4022-12.965h-4.4298v2.1609c0 1.1934-0.96747 2.1609-2.1609 2.1609-1.1934 0-2.1609-0.9675-2.1609-2.1609v-8.6436c0-1.1935 0.96747-2.1609 2.1609-2.1609 1.1934 0 2.1609 0.9674 2.1609 2.1609v2.1609h4.4298c0.45359-4.7674 2.3365-9.2865 5.4022-12.966l-3.0901-3.2197-1.5342 1.5342c-0.84284 0.8379-2.204 0.8379-3.0469 0-0.83783-0.8428-0.83783-2.204 0-3.0468l3.0253-3.0685 3.0469-3.0037c0.5025-0.67986 1.3554-1.0042 2.1827-0.83011 0.8273 0.1741 1.4771 0.81468 1.663 1.6394s-0.1263 1.6822-0.7989 2.1944l-1.5342 1.5342 3.2197 3.1333c3.679-3.0657 8.1981-4.9486 12.966-5.4022v-4.4298h-2.1609c-1.1935 0-2.1609-0.96747-2.1609-2.1609 0-1.1934 0.9674-2.1609 2.1609-2.1609h8.6436c1.1934 0 2.1609 0.96747 2.1609 2.1609 0 1.1934-0.9675 2.1609-2.1609 2.1609h-2.1609v4.4298c4.7673 0.45359 9.2864 2.3365 12.965 5.4022l3.2197-3.0901-1.5342-1.5342c-0.6167-0.52811-0.8853-1.3573-0.6954-2.1467s0.8062-1.4057 1.5956-1.5956 1.6186 0.07873 2.1467 0.6954l3.0685 3.0253 3.0468 3.0469c0.8379 0.8428 0.8379 2.204 0 3.0468-0.8428 0.8379-2.204 0.8379-3.0468 0l-1.5343-1.5342-3.0253 3.2197c3.0657 3.679 4.9487 8.1981 5.4023 12.966h4.3218v-2.1609zm-47.54 4.3218c0 10.741 8.7072 19.448 19.448 19.448 5.1579 0 10.105-2.049 13.752-5.6962 3.6472-3.6473 5.6962-8.594 5.6962-13.752 0-10.741-8.7072-19.448-19.448-19.448-10.741 0-19.448 8.7072-19.448 19.448z" clip-rule="evenodd" fill="#3867FA" fill-rule="evenodd"/>
<path d="m22.02 28.628c2.0909 0 3.7859 1.695 3.7859 3.7859s-1.695 3.7859-3.7859 3.7859-3.7859-1.695-3.7859-3.7859 1.695-3.7859 3.7859-3.7859z" fill="#3867FA"/>
<path d="m33.226 36.785c2.9167 0 5.2812 2.3645 5.2812 5.2813 0 2.9167-2.3645 5.2812-5.2812 5.2812-2.9168 0-5.2813-2.3645-5.2813-5.2812 0-2.9168 2.3645-5.2813 5.2813-5.2813z" fill="#3867FA"/>
<path d="m31.862 29.169c1.3159 2.1846 3.7319 3.4624 6.2783 3.3206 3.6466-0.2032 6.4995-3.2194 6.4995-6.8717s-2.8529-6.6685-6.4995-6.8717c-2.5464-0.1418-4.9624 1.136-6.2783 3.3206-1.3159 2.1845-1.3159 4.9177 0 7.1022zm3.2042-4.8433c0.5303-1.2176 1.7463-1.9919 3.0741-1.9572 1.7686 0.0234 3.1866 1.47 3.1748 3.2388 0.0082 1.3281-0.7901 2.5284-2.0181 3.0344-1.2281 0.5059-2.6402 0.2163-3.57-0.7321-0.9297-0.9485-1.1911-2.3662-0.6608-3.5839z" clip-rule="evenodd" fill="#3867FA" fill-rule="evenodd"/>
</svg>
