<?xml version="1.0" encoding="UTF-8"?>
<svg width="32px" height="32px" viewBox="0 0 32 32" version="1.1" xmlns="http://www.w3.org/2000/svg" xmlns:xlink="http://www.w3.org/1999/xlink">
    <title>Artboard</title>
    <g id="Artboard" stroke="none" stroke-width="1" fill-rule="evenodd">
        <g id="IconPhylotree" transform="translate(3.000000, 3.000000)" fill-rule="nonzero">
            <path d="M22.0454217,20.033957 C23.1789277,20.033957 24.067411,20.9179372 24.067411,22.0456984 C24.067411,23.1855387 23.1789277,24.0783038 22.0454217,24.0783038 C20.918538,24.0783038 20.0035658,23.1668708 20.0035658,22.0456984 C20.0035658,20.9179372 20.9008787,20.033957 22.0454217,20.033957 L22.0454217,20.033957 Z M3.97554867,15.0353508 C2.8420427,15.0353508 1.95355945,14.1425856 1.95355945,13.0038434 C1.95355945,11.8749842 2.8420427,10.9910039 3.97554867,10.9910039 C5.1211954,10.9910039 6.0185083,11.8749842 6.0185083,13.0038434 C6.0185083,14.1239177 5.10132869,15.0353508 3.97554867,15.0353508 L3.97554867,15.0353508 Z M22.0454217,1.92059805 C23.1789277,1.92059805 24.067411,2.81336318 24.067411,3.95320353 C24.067411,5.08206276 23.1789277,5.96494488 22.0454217,5.96494488 C20.9008787,5.96494488 20.0035658,5.08206276 20.0035658,3.95320353 C20.0035658,2.8331292 20.918538,1.92059805 22.0454217,1.92059805 L22.0454217,1.92059805 Z M22.0454217,10.9910039 C23.1789277,10.9910039 24.067411,11.8749842 24.067411,13.0038434 C24.067411,14.1425856 23.1789277,15.0353508 22.0454217,15.0353508 C20.918538,15.0353508 20.0035658,14.1239177 20.0035658,13.0038434 C20.0035658,11.8749842 20.9008787,10.9910039 22.0454217,10.9910039 L22.0454217,10.9910039 Z M18.2685401,13.9734764 C18.7287855,15.7370444 20.2640404,16.9570469 22.0454217,16.9570469 C24.2263446,16.9570469 26,15.1835959 26,13.0038434 C26,10.8229928 24.2263446,9.0495417 22.0454217,9.0495417 C20.2552108,9.0495417 18.7199559,10.2772311 18.2685401,12.0528783 L14.0071316,12.0528783 L14.0071316,5.00519491 L18.2928217,5.00519491 C18.779556,6.720446 20.3048775,7.9075052 22.0454217,7.9075052 C24.2263446,7.9075052 26,6.13405415 26,3.95320353 C26,1.77345103 24.2263446,0 22.0454217,0 C20.2408626,0 18.6647706,1.2891836 18.2453623,3.08349875 L13.0314556,3.08349875 L13.022626,3.08349875 C12.7676699,3.08349875 12.527062,3.18123073 12.3449505,3.35912489 C12.159528,3.53921527 12.0568833,3.78079993 12.0535722,4.05422984 L12.0535722,12.0528783 L7.7524303,12.0528783 C7.3010146,10.2772311 5.76575965,9.0495417 3.97554867,9.0495417 C1.78469245,9.0495417 0,10.8229928 0,13.0038434 L0.00110371,13.1685602 L0.00551853,13.1685602 C0.09160759,15.272543 1.83987774,16.9570469 3.97554867,16.9570469 C5.75803371,16.9570469 7.2932886,15.7370444 7.7524303,13.9734764 L12.0546759,13.9734764 L12.0546759,21.9754192 C12.0635055,22.5003168 12.497262,22.9230899 13.0215223,22.9230899 L13.0303519,22.9230899 L18.2475697,22.9230899 C18.6691854,24.7141107 20.2441737,26 22.0454217,26 C24.2263446,26 26,24.2254509 26,22.0456984 C26,19.8659459 24.2263446,18.0913967 22.0454217,18.0913967 C20.3048775,18.0913967 18.779556,19.2784559 18.2928217,20.9948051 L18.2928217,21.0013938 L14.0071316,21.0013938 L14.0071316,13.9734764 L18.2685401,13.9734764 Z" id="Fill-1"></path>
        </g>
    </g>
</svg>
