<svg width="204" height="41" viewBox="0 0 204 41" fill="none" xmlns="http://www.w3.org/2000/svg">
    <path d="M30.8497 10.2823C33.4641 10.2823 35.5835 8.16297 35.5835 5.54859C35.5835 2.9342 33.4641 0.814819 30.8497 0.814819C28.2353 0.814819 26.116 2.9342 26.116 5.54859C26.116 8.16297 28.2353 10.2823 30.8497 10.2823Z" fill="#FF9C06"/>
    <path d="M3.87195 13.7459C5.35436 13.1979 6.92623 12.9323 8.50636 12.9628H13.281V10.2861H24.7999C23.7436 8.95671 23.1686 7.30877 23.1686 5.61081C23.1686 3.91284 23.7436 2.26491 24.7999 0.935481H11.6155C9.98071 0.85912 8.3583 1.25256 6.94013 2.06925C5.00571 3.30237 3.85441 5.67509 3.88363 9.80106V10.2861L3.87195 13.7459Z" fill="white"/>
    <path d="M32.4624 30.8562H10.1787V25.2459H24.6722C25.7891 25.2653 26.9019 25.1054 27.9683 24.7725C28.5653 24.5715 29.1288 24.2819 29.6397 23.9134C31.4689 22.5809 32.5209 20.103 32.404 15.8894H8.50723C6.87243 15.8123 5.24984 16.2058 3.83191 17.0231C1.82736 18.303 0.65853 20.8101 0.781257 25.2049V40.166H24.7423C25.8594 40.1884 26.9727 40.0285 28.0384 39.6926C28.6362 39.4961 29.2 39.2083 29.7098 38.8394C31.5274 37.542 32.6085 35.064 32.4624 30.8562Z" fill="white"/>
    <path d="M50.2688 24.49C50.821 25.0439 51.4808 25.479 52.2074 25.7685C52.9341 26.0579 53.7123 26.1956 54.4941 26.1731C55.5206 26.1768 56.5349 25.9512 57.463 25.5127C58.2149 25.1947 58.9008 24.7388 59.4851 24.1685L60.1045 23.5081L63.348 27.0556C63.2721 27.1724 63.1552 27.3185 63.0091 27.5114C62.6845 27.865 62.337 28.1969 61.9688 28.5049C61.4254 28.9799 60.8384 29.4026 60.2156 29.7672C59.4319 30.1912 58.5999 30.5189 57.7377 30.7432C56.6898 31.038 55.606 31.1855 54.5175 31.1815C53.0078 31.2149 51.5065 30.9467 50.1016 30.3928C48.6967 29.8389 47.4165 29.0103 46.3357 27.9556C45.2763 26.971 44.4314 25.7786 43.8536 24.4528C43.2758 23.127 42.9775 21.6963 42.9775 20.25C42.9775 18.8038 43.2758 17.3731 43.8536 16.0473C44.4314 14.7215 45.2763 13.5291 46.3357 12.5445C47.8249 11.1457 49.6492 10.1538 51.6329 9.66457C53.6166 9.17529 55.6928 9.20507 57.6617 9.75101C58.5285 9.98572 59.3599 10.3356 60.1338 10.7913C60.7266 11.169 61.2928 11.5868 61.8286 12.0419C62.2144 12.3473 62.5635 12.6963 62.8688 13.0822L63.2019 13.503L59.8006 17.0504C59.7422 16.9685 59.6662 16.875 59.5669 16.7523C59.3634 16.5234 59.1426 16.3104 58.9065 16.1153C58.5658 15.821 58.2045 15.5515 57.8253 15.3088C57.3611 15.0368 56.8643 14.8247 56.3467 14.6776C55.7467 14.492 55.1222 14.3974 54.4941 14.3971C53.3253 14.4055 52.1847 14.7574 51.2143 15.409C50.2439 16.0605 49.4864 16.983 49.0361 18.0617C48.5859 19.1404 48.4626 20.3276 48.6818 21.4757C48.901 22.6239 49.4529 23.6822 50.2688 24.5192V24.49Z" fill="white"/>
    <path d="M65.7093 14.9639V9.93213H81.7982V14.9639L72.6463 25.5886H82.1021V30.6088H65.2593V25.5886L74.4171 14.9639H65.7093Z" fill="white"/>
    <path d="M94.4868 12.739C95.8395 11.3914 97.5303 10.4333 99.3815 9.96535C101.233 9.49742 103.176 9.53699 105.006 10.0799C105.847 10.3183 106.65 10.6744 107.391 11.1377C107.974 11.5156 108.528 11.9356 109.05 12.3942C109.431 12.7163 109.776 13.0788 110.079 13.4754L110.412 13.9195L108.928 15.2461C108.869 15.1526 108.782 15.0241 108.665 14.8663C108.419 14.5624 108.15 14.279 107.858 14.0189C107.436 13.617 106.976 13.2569 106.485 12.9435C105.869 12.5806 105.212 12.2941 104.527 12.0903C103.053 11.6261 101.479 11.574 99.9774 11.9397C98.4755 12.3054 97.1022 13.0749 96.0063 14.165C94.4416 15.8098 93.569 17.9931 93.569 20.2633C93.569 22.5335 94.4416 24.7169 96.0063 26.3617C96.7796 27.1635 97.7105 27.7966 98.7404 28.221C99.7703 28.6455 100.877 28.8521 101.991 28.8279C102.789 28.8302 103.584 28.732 104.358 28.5357C105.015 28.3816 105.65 28.1419 106.245 27.8228C106.684 27.5764 107.109 27.3072 107.519 27.0163C107.808 26.8173 108.069 26.5816 108.297 26.315L108.542 26.0286V22.037H103.808V19.9741H110.745V26.6539C110.633 26.8137 110.51 26.966 110.377 27.1098C110.036 27.4648 109.677 27.8023 109.302 28.1208C108.759 28.6124 108.172 29.0526 107.548 29.4357C105.87 30.3864 103.978 30.8971 102.049 30.9202C99.9485 30.9148 97.8964 30.2882 96.1511 29.1193C94.4058 27.9503 93.0452 26.2913 92.2406 24.3509C91.4359 22.4105 91.2232 20.2755 91.6291 18.2145C92.035 16.1535 93.0415 14.2586 94.5219 12.7682L94.4868 12.739Z" fill="white"/>
    <path d="M130.662 28.5386V30.6015H116.18V9.92493H130.352V11.9996H118.406V18.7905H127.991V20.8535H118.406V28.5386H130.662Z" fill="white"/>
    <path d="M151.899 9.92493V30.6015H149.982L137.288 13.9165V30.6015H135.068V9.92493H136.984L149.69 26.6509V9.92493H151.899Z" fill="white"/>
    <path d="M178.18 28.5386V30.6015H163.704V9.92493H177.876V11.9996H165.925V18.7905H175.51V20.8535H165.925V28.5386H178.18Z" fill="white"/>
    <path d="M190.4 9.92452C191.277 9.8973 192.151 10.0479 192.968 10.3673C193.786 10.6867 194.53 11.1682 195.157 11.783C196.369 13.0233 197.048 14.6888 197.048 16.4232C197.048 18.1576 196.369 19.8231 195.157 21.0635C194.532 21.6793 193.789 22.1621 192.972 22.4825C192.156 22.803 191.282 22.9544 190.405 22.9278H184.795V30.6011H182.574V9.92452H190.4ZM184.789 11.9992V20.8531H190.4C190.995 20.8747 191.588 20.7762 192.144 20.5635C192.7 20.3507 193.207 20.0281 193.635 19.6149C194.064 19.2017 194.405 18.7063 194.638 18.1585C194.87 17.6106 194.99 17.0214 194.99 16.4261C194.99 15.8309 194.87 15.2417 194.638 14.6938C194.405 14.1459 194.064 13.6506 193.635 13.2374C193.207 12.8242 192.7 12.5016 192.144 12.2888C191.588 12.0761 190.995 11.9776 190.4 11.9992H184.789Z" fill="white"/>
    <path d="M201.78 9.92493H204.001V30.6015H201.78V9.92493Z" fill="white"/>
</svg>