<svg width="762" height="588" viewBox="0 0 762 588" fill="none" xmlns="http://www.w3.org/2000/svg">
    <line x1="189.145" y1="2.73196e-08" x2="189.145" y2="587.146" stroke="#323232" stroke-width="1.25" stroke-dasharray="5 5"/>
    <line x1="280.145" y1="2.73196e-08" x2="280.145" y2="587.146" stroke="#323232" stroke-width="1.25" stroke-dasharray="5 5"/>
    <line x1="371.145" y1="128.844" x2="371.145" y2="587.146" stroke="#323232" stroke-width="1.25" stroke-dasharray="5 5"/>
    <line x1="462.145" y1="128.844" x2="462.145" y2="587.146" stroke="#323232" stroke-width="1.25" stroke-dasharray="5 5"/>
    <line x1="553.145" y1="128.844" x2="553.145" y2="587.146" stroke="#323232" stroke-width="1.25" stroke-dasharray="5 5"/>
    <line x1="644.145" y1="128.844" x2="644.145" y2="587.146" stroke="#323232" stroke-width="1.25" stroke-dasharray="5 5"/>
    <line x1="735.145" y1="128.844" x2="735.145" y2="587.146" stroke="#323232" stroke-width="1.25" stroke-dasharray="5 5"/>
    <line x1="98.145" y1="2.73196e-08" x2="98.145" y2="587.146" stroke="#323232" stroke-width="1.25" stroke-dasharray="5 5"/>
    <path d="M189.426 235.971H100.52C98.8632 235.971 97.52 237.314 97.52 238.971L97.52 388.469M189.426 235.971V251.689M189.426 235.971V201.457M189.426 235.971H280.963M280.963 81.4266H192.426C190.769 81.4266 189.426 82.7698 189.426 84.4266V201.457M280.963 81.4266V-6M280.963 81.4266V125.155C280.963 126.812 282.306 128.155 283.963 128.155H764.904M97.52 586.099V523.899M97.52 523.899H186.426C188.083 523.899 189.426 522.556 189.426 520.899V508.3M97.52 523.899V508.3M189.426 508.3H280.963M189.426 508.3H97.52M97.52 489.203V475.222V440.27M97.52 489.203H370.789M97.52 489.203V508.3M370.789 489.203V505.3C370.789 506.957 372.133 508.3 373.789 508.3H764.904M370.789 489.203V476.623C370.789 474.966 372.133 473.623 373.789 473.623H764.904M97.52 440.27H370.789M97.52 440.27L97.52 388.469M370.789 440.27V425.074C370.789 423.418 372.133 422.074 373.789 422.074H463.182M370.789 440.27V454.02C370.789 455.677 372.133 457.02 373.789 457.02H644.546M764.904 422.074H463.182M463.182 422.074V437.27C463.182 438.927 464.525 440.27 466.182 440.27H764.904M463.182 422.074V408.557C463.182 406.9 464.525 405.557 466.182 405.557H764.904M97.52 388.469H189.426M97.52 388.469H4.19727M189.426 388.469L189.426 373.366C189.426 371.71 190.769 370.366 192.426 370.366H280.963M189.426 388.469V402.557C189.426 404.213 190.769 405.557 192.426 405.557H370.789M280.963 370.366V356.859C280.963 355.202 282.306 353.859 283.963 353.859H370.789M280.963 370.366V385.469C280.963 387.126 282.306 388.469 283.963 388.469H463.182M370.789 353.859V368.868C370.789 370.525 372.133 371.868 373.789 371.868H463.182M370.789 353.859H463.182M370.789 353.859V338.041M553.864 320.657H373.789C372.133 320.657 370.789 322 370.789 323.657V338.041M553.864 320.657V306.906C553.864 305.249 555.207 303.906 556.864 303.906H764.904M553.864 320.657V335.041C553.864 336.697 555.207 338.041 556.864 338.041H736.083M370.789 338.041H463.182M189.426 303.459V285.136M189.426 285.136H370.789M189.426 285.136V269.117M189.426 269.117H370.789M189.426 269.117V251.689M189.426 251.689H370.789M189.426 201.457H280.963M280.963 201.457V186.774C280.963 185.117 282.306 183.774 283.963 183.774H370.789M280.963 201.457V214.86C280.963 216.517 282.306 217.86 283.963 217.86H553.864M370.789 183.774V169.976C370.789 168.319 372.133 166.976 373.789 166.976H553.864M370.789 183.774V198.478C370.789 200.135 372.133 201.478 373.789 201.478H734.943M553.864 166.976V159.208M553.864 166.976V174.743M734.943 201.478V191.586M734.943 201.478C734.943 201.478 734.943 208.095 734.943 212.334" stroke="#534B61" stroke-width="5"/>
    <circle cx="279.52" cy="508.492" r="5.87959" fill="#534B61"/>
    <circle cx="189.275" cy="304.276" r="5.87959" fill="#534B61"/>
    <circle cx="279.52" cy="236.203" r="5.87959" fill="#534B61"/>
    <circle cx="370.52" cy="252.22" r="5.87959" fill="#534B61"/>
    <circle cx="553.861" cy="176.113" r="5.87959" fill="#534B61"/>
    <circle cx="553.861" cy="218.099" r="5.87959" fill="#534B61"/>
    <circle cx="734.861" cy="189.122" r="5.87959" fill="#534B61"/>
    <circle cx="734.861" cy="213.84" r="5.87959" fill="#534B61"/>
    <circle cx="370.52" cy="269.18" r="5.87959" fill="#534B61"/>
    <circle cx="370.52" cy="286.138" r="5.87959" fill="#534B61"/>
    <circle cx="645.001" cy="456.773" r="5.87959" fill="#534B61"/>
    <g filter="url(#filter0_d_129:1102)">
    <path d="M189.426 388.508H97.52H4.19727M189.426 388.508L189.426 373.405C189.426 371.749 190.769 370.405 192.426 370.405H280.963M189.426 388.508V402.596C189.426 404.253 190.769 405.596 192.426 405.596H370.789M280.963 370.405V356.898C280.963 355.241 282.306 353.898 283.963 353.898H370.789M280.963 370.405V385.508C280.963 387.165 282.306 388.508 283.963 388.508H463.182M370.789 353.898V368.907C370.789 370.564 372.133 371.907 373.789 371.907H463.182M370.789 353.898H463.182M370.789 353.898V338.08M553.864 320.696H373.789C372.133 320.696 370.789 322.039 370.789 323.696V338.08M553.864 320.696V306.945C553.864 305.288 555.207 303.945 556.864 303.945H764.904M553.864 320.696V335.08C553.864 336.736 555.207 338.08 556.864 338.08H736.083M370.789 338.08H463.182" stroke="url(#paint0_linear_129:1102)" stroke-width="5"/>
    </g>
    <circle cx="462.52" cy="337.173" r="5.87959" fill="#C21FA2"/>
    <circle cx="462.52" cy="353.738" r="5.87959" fill="#C21FA2"/>
    <circle cx="462.52" cy="371.192" r="5.87959" fill="#C21FA2"/>
    <circle cx="462.52" cy="388.701" r="5.87959" fill="#C21FA2"/>
    <circle cx="734.861" cy="337.681" r="5.87959" fill="#FF017B"/>
    <circle cx="370.52" cy="405.596" r="5.87959" fill="#A22EB5"/>
    <circle cx="553.861" cy="158.148" r="5.87959" fill="#534B61"/>
    <defs>
    <filter id="filter0_d_129:1102" x="0.197266" y="301.445" width="768.707" height="114.651" filterUnits="userSpaceOnUse" color-interpolation-filters="sRGB">
    <feFlood flood-opacity="0" result="BackgroundImageFix"/>
    <feColorMatrix in="SourceAlpha" type="matrix" values="0 0 0 0 0 0 0 0 0 0 0 0 0 0 0 0 0 0 127 0" result="hardAlpha"/>
    <feOffset dy="4"/>
    <feGaussianBlur stdDeviation="2"/>
    <feComposite in2="hardAlpha" operator="out"/>
    <feColorMatrix type="matrix" values="0 0 0 0 0 0 0 0 0 0 0 0 0 0 0 0 0 0 0.5 0"/>
    <feBlend mode="normal" in2="BackgroundImageFix" result="effect1_dropShadow_129:1102"/>
    <feBlend mode="normal" in="SourceGraphic" in2="effect1_dropShadow_129:1102" result="shape"/>
    </filter>
    <linearGradient id="paint0_linear_129:1102" x1="42.0633" y1="402.41" x2="520.447" y2="49.4974" gradientUnits="userSpaceOnUse">
    <stop offset="0.226229" stop-color="#7A41CE"/>
    <stop offset="1" stop-color="#FF007A"/>
    </linearGradient>
    </defs>
</svg>
