<svg width="320" height="286" viewBox="0 0 320 286" fill="none" xmlns="http://www.w3.org/2000/svg">
<line x1="71.9002" y1="67.8622" x2="71.9002" y2="285.883" stroke="#323232" stroke-width="0.538636" stroke-dasharray="2.15 2.15"/>
<line x1="111.113" y1="67.8622" x2="111.113" y2="285.883" stroke="#323232" stroke-width="0.538636" stroke-dasharray="2.15 2.15"/>
<line x1="150.325" y1="67.8622" x2="150.325" y2="285.883" stroke="#323232" stroke-width="0.538636" stroke-dasharray="2.15 2.15"/>
<line x1="189.538" y1="67.8622" x2="189.538" y2="285.883" stroke="#323232" stroke-width="0.538636" stroke-dasharray="2.15 2.15"/>
<line x1="228.751" y1="88.3965" x2="228.751" y2="285.883" stroke="#323232" stroke-width="0.538636" stroke-dasharray="2.15 2.15"/>
<line x1="267.964" y1="88.3965" x2="267.964" y2="285.883" stroke="#323232" stroke-width="0.538636" stroke-dasharray="2.15 2.15"/>
<line x1="307.176" y1="88.3965" x2="307.176" y2="285.883" stroke="#323232" stroke-width="0.538636" stroke-dasharray="2.15 2.15"/>
<line x1="32.6875" y1="67.8622" x2="32.6875" y2="285.883" stroke="#323232" stroke-width="0.538636" stroke-dasharray="2.15 2.15"/>
<path d="M72.021 134.558H33.7108C32.9968 134.558 32.418 135.137 32.418 135.851L32.418 200.271M72.021 134.558V141.331M72.021 134.558V119.686M72.021 134.558H111.465M229.061 67.9637H73.3137C72.5998 67.9637 72.021 68.5425 72.021 69.2564V119.686M229.061 67.9637V-32.6123M229.061 67.9637V86.8066C229.061 87.5205 229.64 88.0993 230.354 88.0993H320M32.418 285.431V258.629M32.418 258.629H70.7283C71.4422 258.629 72.021 258.05 72.021 257.336V251.907M32.418 258.629V251.907M72.021 251.907H111.465M72.021 251.907H32.418M32.418 243.678V237.654V222.593M32.418 243.678H150.172M32.418 243.678V251.907M150.172 243.678V250.615C150.172 251.329 150.751 251.907 151.465 251.907H320M150.172 243.678V238.257C150.172 237.543 150.751 236.965 151.465 236.965H320M32.418 222.593H150.172M32.418 222.593L32.418 200.271M150.172 222.593V216.045C150.172 215.331 150.751 214.752 151.465 214.752H189.985M150.172 222.593V228.518C150.172 229.232 150.751 229.81 151.465 229.81H268.137M320 214.752H189.985M189.985 214.752V221.3C189.985 222.014 190.564 222.593 191.278 222.593H320M189.985 214.752V208.927C189.985 208.213 190.564 207.634 191.278 207.634H320M32.418 200.271H72.021M32.418 200.271H-7.79559M72.021 200.271L72.021 193.763C72.021 193.049 72.5998 192.47 73.3137 192.47H111.465M72.021 200.271V206.341C72.021 207.055 72.5998 207.634 73.3137 207.634H150.172M111.465 192.47V186.65C111.465 185.936 112.044 185.357 112.758 185.357H150.172M111.465 192.47V198.978C111.465 199.692 112.044 200.271 112.758 200.271H189.985M150.172 185.357V191.825C150.172 192.539 150.751 193.118 151.465 193.118H189.985M150.172 185.357H189.985M150.172 185.357V178.541M229.061 171.05H151.465C150.751 171.05 150.172 171.629 150.172 172.343V178.541M229.061 171.05V165.125C229.061 164.411 229.64 163.832 230.354 163.832H320M229.061 171.05V177.248C229.061 177.962 229.64 178.541 230.354 178.541H307.581M150.172 178.541H189.985M72.021 163.64V155.744M72.021 155.744H150.172M72.021 155.744V148.841M72.021 148.841H150.172M72.021 148.841V141.331M72.021 141.331H150.172M72.021 119.686H111.465M111.465 119.686V113.359C111.465 112.645 112.044 112.066 112.758 112.066H150.172M111.465 119.686V125.461C111.465 126.175 112.044 126.754 112.758 126.754H229.061M150.172 112.066V106.12C150.172 105.406 150.751 104.828 151.465 104.828H229.061M150.172 112.066V118.402C150.172 119.116 150.751 119.695 151.465 119.695H307.089M229.061 104.828V101.481M229.061 104.828V108.174M307.089 119.695V115.432M307.089 119.695C307.089 119.695 307.089 122.546 307.089 124.373" stroke="#534B61" stroke-width="2"/>
<circle cx="110.844" cy="251.99" r="2.53357" fill="#534B61"/>
<circle cx="71.9562" cy="163.991" r="2.53357" fill="#534B61"/>
<circle cx="110.844" cy="134.658" r="2.53357" fill="#534B61"/>
<circle cx="150.056" cy="141.56" r="2.53357" fill="#534B61"/>
<circle cx="229.059" cy="99.6619" r="2.53357" fill="#534B61"/>
<circle cx="229.059" cy="110.145" r="2.53357" fill="#534B61"/>
<circle cx="229.059" cy="126.857" r="2.53357" fill="#534B61"/>
<circle cx="307.054" cy="114.371" r="2.53357" fill="#534B61"/>
<circle cx="307.054" cy="125.022" r="2.53357" fill="#534B61"/>
<circle cx="150.056" cy="148.868" r="2.53357" fill="#534B61"/>
<circle cx="150.056" cy="156.176" r="2.53357" fill="#534B61"/>
<circle cx="268.333" cy="229.704" r="2.53357" fill="#534B61"/>
<g filter="url(#filter0_d_132:3253)">
<path d="M72.021 200.288H32.418H-7.79559M72.021 200.288L72.021 193.78C72.021 193.066 72.5998 192.487 73.3137 192.487H111.465M72.021 200.288V206.359C72.021 207.072 72.5998 207.651 73.3137 207.651H150.172M111.465 192.487V186.667C111.465 185.953 112.044 185.374 112.758 185.374H150.172M111.465 192.487V198.995C111.465 199.709 112.044 200.288 112.758 200.288H189.985M150.172 185.374V191.842C150.172 192.556 150.751 193.135 151.465 193.135H189.985M150.172 185.374H189.985M150.172 185.374V178.558M229.061 171.067H151.465C150.751 171.067 150.172 171.646 150.172 172.36V178.558M229.061 171.067V165.142C229.061 164.428 229.64 163.849 230.354 163.849H320M229.061 171.067V177.265C229.061 177.979 229.64 178.558 230.354 178.558H307.581M150.172 178.558H189.985" stroke="url(#paint0_linear_132:3253)" stroke-width="3"/>
</g>
<circle cx="189.7" cy="178.167" r="2.53357" fill="#C21FA2"/>
<circle cx="189.7" cy="185.305" r="2.53357" fill="#C21FA2"/>
<circle cx="189.7" cy="192.826" r="2.53357" fill="#C21FA2"/>
<circle cx="189.7" cy="200.371" r="2.53357" fill="#C21FA2"/>
<circle cx="307.054" cy="178.386" r="2.53357" fill="#FF017B"/>
<circle cx="150.056" cy="207.651" r="2.53357" fill="#A22EB5"/>
<defs>
<filter id="filter0_d_132:3253" x="-9.51923" y="162.349" width="331.243" height="50.2494" filterUnits="userSpaceOnUse" color-interpolation-filters="sRGB">
<feFlood flood-opacity="0" result="BackgroundImageFix"/>
<feColorMatrix in="SourceAlpha" type="matrix" values="0 0 0 0 0 0 0 0 0 0 0 0 0 0 0 0 0 0 127 0" result="hardAlpha"/>
<feOffset dy="1.72364"/>
<feGaussianBlur stdDeviation="0.861818"/>
<feComposite in2="hardAlpha" operator="out"/>
<feColorMatrix type="matrix" values="0 0 0 0 0 0 0 0 0 0 0 0 0 0 0 0 0 0 0.5 0"/>
<feBlend mode="normal" in2="BackgroundImageFix" result="effect1_dropShadow_132:3253"/>
<feBlend mode="normal" in="SourceGraphic" in2="effect1_dropShadow_132:3253" result="shape"/>
</filter>
<linearGradient id="paint0_linear_132:3253" x1="8.52121" y1="206.279" x2="214.661" y2="54.2052" gradientUnits="userSpaceOnUse">
<stop offset="0.226229" stop-color="#7A41CE"/>
<stop offset="1" stop-color="#FF007A"/>
</linearGradient>
</defs>
</svg>
