<svg width="760" height="572" viewBox="0 0 760 586" fill="none" xmlns="http://www.w3.org/2000/svg">
  <style>
    @keyframes group-1-fade {
      0% {
        opacity: 0;
      }

      3% {
        opacity: 100%;
      }

      25% {
        opacity: 100%;
      }

      28% {
        opacity: 0%;
      }

      100% {
        opacity: 0%;
      }
    }

    @keyframes group-2-fade {
      0% {
        opacity: 0;
      }

      23% {
        opacity: 0%;
      }

      25% {
        opacity: 100%;
      }

      50% {
        opacity: 100%;
      }

      53% {
        opacity: 0%;
      }

      100% {
        opacity: 0%;
      }
    }

    @keyframes group-3-fade {
      0% {
        opacity: 0;
      }

      47% {
        opacity: 0%;
      }

      50% {
        opacity: 100%;
      }

      75% {
        opacity: 100%;
      }

      78% {
        opacity: 0%;
      }

      100% {
        opacity: 0%;
      }
    }

    @keyframes group-4-fade {
      0% {
        opacity: 0;
      }

      72% {
        opacity: 0%;
      }

      75% {
        opacity: 100%;
      }

      97% {
        opacity: 100%;
      }

      100% {
        opacity: 0%;
      }
    }

    #group-1,
    #group-2,
    #group-3,
    #group-4 {
      opacity: 0;
      animation-duration: 12s;
      animation-iteration-count: infinite;
      animation-delay: 0;
    }

    #group-1 {
      animation-name: group-1-fade;
    }

    #group-2 {
      animation-name: group-2-fade;
    }

    #group-3 {
      animation-name: group-3-fade;
    }

    #group-4 {
      animation-name: group-4-fade;
    }
  </style>
  <g id="animation" clip-path="url(#clip0_678_647)">
    <rect width="760" height="586" fill="black" />
    <g id="base">
      <line id="Line 52" x1="184.625" y1="-11" x2="184.625" y2="586" stroke="#323232" stroke-width="1.25" stroke-dasharray="5 5" />
      <line id="Line 46" x1="275.625" y1="-11" x2="275.625" y2="586" stroke="#323232" stroke-width="1.25" stroke-dasharray="5 5" />
      <line id="Line 47" x1="366.625" y1="120" x2="366.625" y2="586" stroke="#323232" stroke-width="1.25" stroke-dasharray="5 5" />
      <line id="Line 48" x1="457.625" y1="120" x2="457.625" y2="586" stroke="#323232" stroke-width="1.25" stroke-dasharray="5 5" />
      <line id="Line 49" x1="548.625" y1="120" x2="548.625" y2="586" stroke="#323232" stroke-width="1.25" stroke-dasharray="5 5" />
      <line id="Line 50" x1="639.625" y1="118" x2="639.625" y2="514" stroke="#323232" stroke-width="1.25" stroke-dasharray="5 5" />
      <line id="Line 51" x1="730.625" y1="118" x2="730.625" y2="514" stroke="#323232" stroke-width="1.25" stroke-dasharray="5 5" />
      <line id="Line 45" x1="93.1445" y1="-11" x2="93.1445" y2="576.146" stroke="#323232" stroke-width="1.25" stroke-dasharray="5 5" />
      <path id="Vector 652" d="M184.426 224.971H95.52C93.8632 224.971 92.52 226.314 92.52 227.971L92.52 377.469M184.426 224.971V240.689M184.426 224.971V190.457M184.426 224.971H275.963M275.963 70.4266H187.426C185.769 70.4266 184.426 71.7698 184.426 73.4266V190.457M275.963 70.4266V-17M275.963 70.4266V114.155C275.963 115.812 277.306 117.155 278.963 117.155H759.904M92.52 586V512.899M92.52 512.899H181.426C183.083 512.899 184.426 511.556 184.426 509.899V497.3M92.52 512.899V497.3M184.426 497.3H275.963M184.426 497.3H92.52M92.52 478.203V464.222V429.27M92.52 478.203H365.789M92.52 478.203V497.3M365.789 478.203V494.3C365.789 495.957 367.133 497.3 368.789 497.3H759.904M365.789 478.203V465.623C365.789 463.966 367.133 462.623 368.789 462.623H759.904M92.52 429.27H365.789M92.52 429.27L92.52 377.469M365.789 429.27V414.074C365.789 412.418 367.133 411.074 368.789 411.074H458.182M365.789 429.27V443.02C365.789 444.677 367.133 446.02 368.789 446.02H639.546M759.904 411.074H458.182M458.182 411.074V426.27C458.182 427.927 459.525 429.27 461.182 429.27H759.904M458.182 411.074V397.557C458.182 395.9 459.525 394.557 461.182 394.557H759.904M92.52 377.469H184.426M92.52 377.469H-0.802734M184.426 377.469L184.426 362.366C184.426 360.71 185.769 359.366 187.426 359.366H275.963M184.426 377.469V391.557C184.426 393.213 185.769 394.557 187.426 394.557H365.789M275.963 359.366V345.859C275.963 344.202 277.306 342.859 278.963 342.859H365.789M275.963 359.366V374.469C275.963 376.126 277.306 377.469 278.963 377.469H458.182M365.789 342.859V357.868C365.789 359.525 367.133 360.868 368.789 360.868H458.182M365.789 342.859H458.182M365.789 342.859V327.041M548.864 309.657H368.789C367.133 309.657 365.789 311 365.789 312.657V327.041M548.864 309.657V295.906C548.864 294.249 550.207 292.906 551.864 292.906H759.904M548.864 309.657V324.041C548.864 325.697 550.207 327.041 551.864 327.041H731.083M365.789 327.041H458.182M184.426 292.459V274.136M184.426 274.136H365.789M184.426 274.136V258.117M184.426 258.117H365.789M184.426 258.117V240.689M184.426 240.689H365.789M184.426 190.457H275.963M275.963 190.457V175.774C275.963 174.117 277.306 172.774 278.963 172.774H365.789M275.963 190.457V203.86C275.963 205.517 277.306 206.86 278.963 206.86H548.864M365.789 172.774V158.976C365.789 157.319 367.133 155.976 368.789 155.976H548.864M365.789 172.774V187.478C365.789 189.135 367.133 190.478 368.789 190.478H729.943M548.864 155.976V148.208M548.864 155.976V163.743M729.943 190.478V180.586M729.943 190.478C729.943 190.478 729.943 197.095 729.943 201.334" stroke="#534B61" stroke-width="5" />
      <path id="Vector 653" d="M184.426 224.971H95.52C93.8632 224.971 92.52 226.314 92.52 227.971L92.52 377.469M184.426 224.971V240.689M184.426 224.971V190.457M184.426 224.971H275.963M275.963 70.4266H187.426C185.769 70.4266 184.426 71.7698 184.426 73.4266V190.457M275.963 70.4266V-17M275.963 70.4266V114.155C275.963 115.812 277.306 117.155 278.963 117.155H759.904M92.52 586V512.899M92.52 512.899H181.426C183.083 512.899 184.426 511.556 184.426 509.899V497.3M92.52 512.899V497.3M184.426 497.3H275.963M184.426 497.3H92.52M92.52 478.203V464.222V429.27M92.52 478.203H365.789M92.52 478.203V497.3M365.789 478.203V494.3C365.789 495.957 367.133 497.3 368.789 497.3H759.904M365.789 478.203V465.623C365.789 463.966 367.133 462.623 368.789 462.623H759.904M92.52 429.27H365.789M92.52 429.27L92.52 377.469M365.789 429.27V414.074C365.789 412.418 367.133 411.074 368.789 411.074H458.182M365.789 429.27V443.02C365.789 444.677 367.133 446.02 368.789 446.02H639.546M759.904 411.074H458.182M458.182 411.074V426.27C458.182 427.927 459.525 429.27 461.182 429.27H759.904M458.182 411.074V397.557C458.182 395.9 459.525 394.557 461.182 394.557H759.904M92.52 377.469H184.426M92.52 377.469H-0.802734M184.426 377.469L184.426 362.366C184.426 360.71 185.769 359.366 187.426 359.366H275.963M184.426 377.469V391.557C184.426 393.213 185.769 394.557 187.426 394.557H365.789M275.963 359.366V345.859C275.963 344.202 277.306 342.859 278.963 342.859H365.789M275.963 359.366V374.469C275.963 376.126 277.306 377.469 278.963 377.469H458.182M365.789 342.859V357.868C365.789 359.525 367.133 360.868 368.789 360.868H458.182M365.789 342.859H458.182M365.789 342.859V327.041M548.864 309.657H368.789C367.133 309.657 365.789 311 365.789 312.657V327.041M548.864 309.657V295.906C548.864 294.249 550.207 292.906 551.864 292.906H759.904M548.864 309.657V324.041C548.864 325.697 550.207 327.041 551.864 327.041H731.083M365.789 327.041H458.182M184.426 292.459V274.136M184.426 274.136H365.789M184.426 274.136V258.117M184.426 258.117H365.789M184.426 258.117V240.689M184.426 240.689H365.789M184.426 190.457H275.963M275.963 190.457V175.774C275.963 174.117 277.306 172.774 278.963 172.774H365.789M275.963 190.457V203.86C275.963 205.517 277.306 206.86 278.963 206.86H548.864M365.789 172.774V158.976C365.789 157.319 367.133 155.976 368.789 155.976H548.864M365.789 172.774V187.478C365.789 189.135 367.133 190.478 368.789 190.478H729.943M548.864 155.976V148.208M548.864 155.976V163.743M729.943 190.478V180.586M729.943 190.478C729.943 190.478 729.943 197.095 729.943 201.334" stroke="#534B61" stroke-width="5" />
      <circle id="Ellipse 14276" cx="274.52" cy="497.492" r="5.87959" fill="#534B61" />
      <circle id="Ellipse 14277" cx="184.275" cy="293.276" r="5.87959" fill="#534B61" />
      <circle id="Ellipse 14278" cx="274.52" cy="225.203" r="5.87959" fill="#534B61" />
      <circle id="Ellipse 14279" cx="365.52" cy="241.22" r="5.87959" fill="#534B61" />
      <circle id="Ellipse 14292" cx="548.861" cy="207.099" r="5.87959" fill="#534B61" />
      <circle id="Ellipse 14280" cx="365.52" cy="258.18" r="5.87959" fill="#534B61" />
      <circle id="Ellipse 14281" cx="365.52" cy="275.138" r="5.87959" fill="#534B61" />
      <circle id="Ellipse 14287" cx="640.001" cy="445.773" r="5.87959" fill="#534B61" />
      <circle id="Ellipse 14288" cx="457.52" cy="326.173" r="5.87959" fill="#534B61" />
      <circle id="Ellipse 14289" cx="457.52" cy="342.738" r="5.87959" fill="#534B61" />
      <circle id="Ellipse 14290" cx="457.52" cy="360.192" r="5.87959" fill="#534B61" />
      <circle id="Ellipse 14291" cx="457.52" cy="377.701" r="5.87959" fill="#534B61" />
      <circle id="Ellipse 14293" cx="729.86" cy="326.681" r="5.87959" fill="#534B61" />
      <circle id="Ellipse 14294" cx="365.52" cy="394.596" r="5.87959" fill="#534B61" />
      <circle id="Ellipse 14282" cx="548.861" cy="147.148" r="5.87959" fill="#534B61" />
      <circle id="Ellipse 14283" cx="548.861" cy="165.113" r="5.87959" fill="#534B61" />
      <circle id="Ellipse 14284" cx="729.86" cy="178.122" r="5.87959" fill="#534B61" />
      <circle id="Ellipse 14285" cx="729.86" cy="202.84" r="5.87959" fill="#534B61" />
    </g>
    <g id="group-1">
      <path id="Vector 655" d="M184.228 377.563H92.3227H-1M184.228 377.563L184.228 362.46C184.228 360.803 185.572 359.46 187.228 359.46H275.766M184.228 377.563V391.651C184.228 393.307 185.572 394.651 187.228 394.651H365.592M275.766 359.46V345.953C275.766 344.296 277.109 342.953 278.766 342.953H365.592M275.766 359.46V374.563C275.766 376.22 277.109 377.563 278.766 377.563H457.985M365.592 342.953V357.962C365.592 359.619 366.935 360.962 368.592 360.962H457.985M365.592 342.953H457.985M365.592 342.953V327.134M548.667 309.751H368.592C366.935 309.751 365.592 311.094 365.592 312.751V327.134M548.667 309.751V296C548.667 294.343 550.01 293 551.667 293H759.707M548.667 309.751V324.134C548.667 325.791 550.01 327.134 551.667 327.134H730.886M365.592 327.134H457.985" stroke="url(#paint0_linear_678_647)" stroke-width="5" />
      <circle id="Ellipse 14295" cx="457.323" cy="326.228" r="5.87959" fill="#C21FA2" />
      <circle id="Ellipse 14296" cx="457.323" cy="342.793" r="5.87959" fill="#C21FA2" />
      <circle id="Ellipse 14297" cx="457.323" cy="360.247" r="5.87959" fill="#C21FA2" />
      <circle id="Ellipse 14298" cx="457.323" cy="377.755" r="5.87959" fill="#C21FA2" />
      <circle id="Ellipse 14299" cx="729.663" cy="326.736" r="5.87959" fill="#FF017B" />
      <circle id="Ellipse 14300" cx="365.323" cy="394.65" r="5.87959" fill="#A22EB5" />
    </g>
    <g id="group-2">
      <path id="Vector 653_2" d="M365.779 478.215H95.5093C93.8524 478.215 92.5093 476.872 92.5093 475.215V464.234V429.282L92.5093 380.481C92.5093 378.824 91.1661 377.481 89.5093 377.481H-0.813477M365.779 478.215V494.312C365.779 495.969 367.122 497.312 368.779 497.312H759.894M365.779 478.215V465.635C365.779 463.978 367.122 462.635 368.779 462.635H759.894" stroke="url(#paint1_linear_678_647)" stroke-width="5" />
    </g>
    <g id="group-3">
      <g id="Vector 653_3">
        <path d="M275.972 190.462H187.434C185.778 190.462 184.434 191.805 184.434 193.462V221.976C184.434 223.633 183.091 224.976 181.434 224.976H95.5288C93.872 224.976 92.5288 226.319 92.5288 227.976L92.5288 374.474C92.5288 376.131 91.1856 377.474 89.5288 377.474H-0.793945M275.972 190.462V175.779C275.972 174.122 277.315 172.779 278.972 172.779H365.798M275.972 190.462V203.865C275.972 205.521 277.315 206.865 278.972 206.865H548.873M365.798 172.779V158.98C365.798 157.324 367.141 155.98 368.798 155.98H548.873M365.798 172.779V187.483C365.798 189.14 367.141 190.483 368.798 190.483H729.951M548.873 155.98V148.213M548.873 155.98V163.748M729.951 190.483V180.591M729.951 190.483C729.951 190.483 729.951 197.1 729.951 201.339" stroke="#534B61" stroke-width="5" />
        <path d="M275.972 190.462H187.434C185.778 190.462 184.434 191.805 184.434 193.462V221.976C184.434 223.633 183.091 224.976 181.434 224.976H95.5288C93.872 224.976 92.5288 226.319 92.5288 227.976L92.5288 374.474C92.5288 376.131 91.1856 377.474 89.5288 377.474H-0.793945M275.972 190.462V175.779C275.972 174.122 277.315 172.779 278.972 172.779H365.798M275.972 190.462V203.865C275.972 205.521 277.315 206.865 278.972 206.865H548.873M365.798 172.779V158.98C365.798 157.324 367.141 155.98 368.798 155.98H548.873M365.798 172.779V187.483C365.798 189.14 367.141 190.483 368.798 190.483H729.951M548.873 155.98V148.213M548.873 155.98V163.748M729.951 190.483V180.591M729.951 190.483C729.951 190.483 729.951 197.1 729.951 201.339" stroke="url(#paint2_linear_678_647)" stroke-width="5" />
      </g>
      <circle id="Ellipse 14295_2" cx="548.861" cy="207.099" r="5.87959" fill="#D6078D" />
      <circle id="Ellipse 14296_2" cx="548.861" cy="147.148" r="5.87959" fill="#D6078D" />
      <circle id="Ellipse 14297_2" cx="548.861" cy="165.113" r="5.87959" fill="#D6078D" />
      <circle id="Ellipse 14298_2" cx="729.86" cy="178.122" r="5.87959" fill="#FF017B" />
      <circle id="Ellipse 14299_2" cx="729.86" cy="202.84" r="5.87959" fill="#FF017B" />
    </g>
    <g id="group-4">
      <g id="Vector 653_4">
        <path d="M184.429 224.919H95.5232C93.8664 224.919 92.5232 226.262 92.5232 227.919L92.5232 374.417C92.5232 376.074 91.18 377.417 89.5232 377.417H-0.799561M184.429 224.919V240.637M184.429 224.919H275.966M184.429 292.407V274.084M184.429 274.084H365.793M184.429 274.084V258.065M184.429 258.065H365.793M184.429 258.065V240.637M184.429 240.637H365.793" stroke="#534B61" stroke-width="5" />
        <path d="M184.429 224.919H95.5232C93.8664 224.919 92.5232 226.262 92.5232 227.919L92.5232 374.417C92.5232 376.074 91.18 377.417 89.5232 377.417H-0.799561M184.429 224.919V240.637M184.429 224.919H275.966M184.429 292.407V274.084M184.429 274.084H365.793M184.429 274.084V258.065M184.429 258.065H365.793M184.429 258.065V240.637M184.429 240.637H365.793" stroke="url(#paint3_linear_678_647)" stroke-width="5" />
      </g>
      <circle id="Ellipse 14277_2" cx="184.275" cy="293.276" r="5.87959" fill="#9C0FA7" />
      <circle id="Ellipse 14278_2" cx="274.52" cy="225.203" r="5.87959" fill="#D8068C" />
      <circle id="Ellipse 14279_2" cx="365.52" cy="241.22" r="5.87959" fill="#FF017B" />
      <circle id="Ellipse 14280_2" cx="365.52" cy="258.18" r="5.87959" fill="#FF017B" />
      <circle id="Ellipse 14281_2" cx="365.52" cy="275.138" r="5.87959" fill="#FF017B" />
    </g>
  </g>
  <defs>
    <linearGradient id="paint0_linear_678_647" x1="36.866" y1="391.465" x2="515.25" y2="38.5522" gradientUnits="userSpaceOnUse">
      <stop offset="0.226229" stop-color="#5D18C2" />
      <stop offset="1" stop-color="#FF007A" />
    </linearGradient>
    <linearGradient id="paint1_linear_678_647" x1="37.0525" y1="493.557" x2="567.899" y2="161.358" gradientUnits="userSpaceOnUse">
      <stop offset="0.226229" stop-color="#5D18C2" />
      <stop offset="1" stop-color="#FF007A" />
    </linearGradient>
    <linearGradient id="paint2_linear_678_647" x1="35.5806" y1="370.29" x2="681.453" y2="167.35" gradientUnits="userSpaceOnUse">
      <stop offset="0.226229" stop-color="#5D18C2" />
      <stop offset="1" stop-color="#FF007A" />
    </linearGradient>
    <linearGradient id="paint3_linear_678_647" x1="17.4484" y1="372.638" x2="354.523" y2="292.76" gradientUnits="userSpaceOnUse">
      <stop offset="0.226229" stop-color="#5D18C2" />
      <stop offset="1" stop-color="#FF007A" />
    </linearGradient>
    <clipPath id="clip0_678_647">
      <rect width="760" height="586" fill="white" />
    </clipPath>
  </defs>
</svg>