<svg width="758" height="586" viewBox="0 0 758 586" fill="none" xmlns="http://www.w3.org/2000/svg">
<line x1="185.145" y1="-11" x2="185.145" y2="576.146" stroke="#323232" stroke-width="1.25" stroke-dasharray="5 5"/>
<line x1="276.145" y1="-11" x2="276.145" y2="576.146" stroke="#323232" stroke-width="1.25" stroke-dasharray="5 5"/>
<line x1="367.145" y1="117.844" x2="367.145" y2="576.146" stroke="#323232" stroke-width="1.25" stroke-dasharray="5 5"/>
<line x1="458.145" y1="117.844" x2="458.145" y2="576.146" stroke="#323232" stroke-width="1.25" stroke-dasharray="5 5"/>
<line x1="549.145" y1="117.844" x2="549.145" y2="576.146" stroke="#323232" stroke-width="1.25" stroke-dasharray="5 5"/>
<line x1="640.625" y1="118" x2="640.625" y2="514" stroke="#323232" stroke-width="1.25" stroke-dasharray="5 5"/>
<line x1="731.625" y1="118" x2="731.625" y2="514" stroke="#323232" stroke-width="1.25" stroke-dasharray="5 5"/>
<line x1="94.1445" y1="-11" x2="94.1445" y2="576.146" stroke="#323232" stroke-width="1.25" stroke-dasharray="5 5"/>
<path d="M185.426 224.971H96.52C94.8632 224.971 93.52 226.314 93.52 227.971L93.52 377.469M185.426 224.971V240.689M185.426 224.971V190.457M185.426 224.971H276.963M276.963 70.4266H188.426C186.769 70.4266 185.426 71.7698 185.426 73.4266V190.457M276.963 70.4266V-17M276.963 70.4266V114.155C276.963 115.812 278.306 117.155 279.963 117.155H760.904M93.52 586V512.899M93.52 512.899H182.426C184.083 512.899 185.426 511.556 185.426 509.899V497.3M93.52 512.899V497.3M185.426 497.3H276.963M185.426 497.3H93.52M93.52 478.203V464.222V429.27M93.52 478.203H366.789M93.52 478.203V497.3M366.789 478.203V494.3C366.789 495.957 368.133 497.3 369.789 497.3H760.904M366.789 478.203V465.623C366.789 463.966 368.133 462.623 369.789 462.623H760.904M93.52 429.27H366.789M93.52 429.27L93.52 377.469M366.789 429.27V414.074C366.789 412.418 368.133 411.074 369.789 411.074H459.182M366.789 429.27V443.02C366.789 444.677 368.133 446.02 369.789 446.02H640.546M760.904 411.074H459.182M459.182 411.074V426.27C459.182 427.927 460.525 429.27 462.182 429.27H760.904M459.182 411.074V397.557C459.182 395.9 460.525 394.557 462.182 394.557H760.904M93.52 377.469H185.426M93.52 377.469H0.197266M185.426 377.469L185.426 362.366C185.426 360.71 186.769 359.366 188.426 359.366H276.963M185.426 377.469V391.557C185.426 393.213 186.769 394.557 188.426 394.557H366.789M276.963 359.366V345.859C276.963 344.202 278.306 342.859 279.963 342.859H366.789M276.963 359.366V374.469C276.963 376.126 278.306 377.469 279.963 377.469H459.182M366.789 342.859V357.868C366.789 359.525 368.133 360.868 369.789 360.868H459.182M366.789 342.859H459.182M366.789 342.859V327.041M549.864 309.657H369.789C368.133 309.657 366.789 311 366.789 312.657V327.041M549.864 309.657V295.906C549.864 294.249 551.207 292.906 552.864 292.906H760.904M549.864 309.657V324.041C549.864 325.697 551.207 327.041 552.864 327.041H732.083M366.789 327.041H459.182M185.426 292.459V274.136M185.426 274.136H366.789M185.426 274.136V258.117M185.426 258.117H366.789M185.426 258.117V240.689M185.426 240.689H366.789M185.426 190.457H276.963M276.963 190.457V175.774C276.963 174.117 278.306 172.774 279.963 172.774H366.789M276.963 190.457V203.86C276.963 205.517 278.306 206.86 279.963 206.86H549.864M366.789 172.774V158.976C366.789 157.319 368.133 155.976 369.789 155.976H549.864M366.789 172.774V187.478C366.789 189.135 368.133 190.478 369.789 190.478H730.943M549.864 155.976V148.208M549.864 155.976V163.743M730.943 190.478V180.586M730.943 190.478C730.943 190.478 730.943 197.095 730.943 201.334" stroke="#534B61" stroke-width="5"/>
<circle cx="275.52" cy="497.492" r="5.87959" fill="#534B61"/>
<circle cx="185.275" cy="293.276" r="5.87959" fill="#534B61"/>
<circle cx="275.52" cy="225.203" r="5.87959" fill="#534B61"/>
<circle cx="366.52" cy="241.22" r="5.87959" fill="#534B61"/>
<circle cx="549.861" cy="207.099" r="5.87959" fill="#534B61"/>
<circle cx="366.52" cy="258.18" r="5.87959" fill="#534B61"/>
<circle cx="366.52" cy="275.138" r="5.87959" fill="#534B61"/>
<circle cx="641.001" cy="445.773" r="5.87959" fill="#534B61"/>
<circle cx="458.52" cy="326.173" r="5.87959" fill="#534B61"/>
<circle cx="458.52" cy="342.738" r="5.87959" fill="#534B61"/>
<circle cx="458.52" cy="360.192" r="5.87959" fill="#534B61"/>
<circle cx="458.52" cy="377.701" r="5.87959" fill="#534B61"/>
<circle cx="730.86" cy="326.681" r="5.87959" fill="#534B61"/>
<circle cx="366.52" cy="394.596" r="5.87959" fill="#534B61"/>
<circle cx="549.861" cy="147.148" r="5.87959" fill="#534B61"/>
<circle cx="549.861" cy="165.113" r="5.87959" fill="#534B61"/>
<circle cx="730.86" cy="178.122" r="5.87959" fill="#534B61"/>
<circle cx="730.86" cy="202.84" r="5.87959" fill="#534B61"/>
</svg>
