<svg id="E_CZ_GEN_EPI" data-name="E CZ GEN EPI" xmlns="http://www.w3.org/2000/svg" viewBox="0 0 347.74 67.41"><defs><style>.cls-1{fill:#ff9c06;}.cls-2{fill:#fff;}</style></defs><circle class="cls-1" cx="51.47" cy="8.1" r="8.1"/><path class="cls-2" d="M5.31,22.14a21.63,21.63,0,0,1,7.93-1.34H21.4V16.2H41.11a12.9,12.9,0,0,1,0-16H18.55a14.62,14.62,0,0,0-8,1.93C7.24,4.24,5.27,8.31,5.31,15.37l0,.83h0Z"/><path class="cls-2" d="M54.22,51.4H16.09V41.8H40.9A17.49,17.49,0,0,0,46.53,41a10.36,10.36,0,0,0,2.87-1.46c3.13-2.28,4.93-6.52,4.72-13.73H13.24a14.71,14.71,0,0,0-8,1.93C1.81,29.92-.2,34.22,0,41.79H0V67.41H41a17.77,17.77,0,0,0,5.63-.81,10.66,10.66,0,0,0,2.87-1.47C52.63,62.85,54.43,58.61,54.22,51.4Z"/><path class="cls-2" d="M84.7,40.51a9.77,9.77,0,0,0,7.23,2.89A11.68,11.68,0,0,0,97,42.26,11.13,11.13,0,0,0,100.46,40l1.06-1.13,5.56,6.06c-.14.2-.33.46-.58.78a17.48,17.48,0,0,1-1.78,1.7,18.35,18.35,0,0,1-3,2.16,18.65,18.65,0,0,1-4.27,1.69,20.19,20.19,0,0,1-5.51.76,19.4,19.4,0,0,1-14-5.52,17.63,17.63,0,0,1-5.74-13.19A17.62,17.62,0,0,1,78,20.1a20.36,20.36,0,0,1,19.38-4.78,16.81,16.81,0,0,1,4.23,1.78,26.16,26.16,0,0,1,2.91,2.07A10.63,10.63,0,0,1,106.26,21l.57.71L101,27.73c-.1-.13-.23-.3-.4-.5a10.23,10.23,0,0,0-1.13-1.09,14.8,14.8,0,0,0-1.85-1.38,11.06,11.06,0,0,0-2.53-1.09,10.79,10.79,0,0,0-3.17-.48A9.86,9.86,0,0,0,81.81,33.28,9.77,9.77,0,0,0,84.7,40.51Z"/><path class="cls-2" d="M111.12,24.2V15.59h27.53V24.2L123,42.39h16.19V51H110.35V42.39L126,24.2Z"/><path class="cls-2" d="M160.36,20.4a18.24,18.24,0,0,1,18-4.55,15.77,15.77,0,0,1,4.09,1.82,24.28,24.28,0,0,1,2.83,2.14,11.92,11.92,0,0,1,1.77,1.85l.57.77L185.1,24.7a5.72,5.72,0,0,0-.44-.66,14.68,14.68,0,0,0-1.38-1.44,15.58,15.58,0,0,0-2.36-1.84,15.4,15.4,0,0,0-3.34-1.47,14.22,14.22,0,0,0-4.34-.66A13.81,13.81,0,0,0,163,22.85a14.25,14.25,0,0,0-4.17,10.43A14.26,14.26,0,0,0,163,43.72a13.84,13.84,0,0,0,10.24,4.22,15.69,15.69,0,0,0,4-.51,13.16,13.16,0,0,0,3.16-1.2,22.22,22.22,0,0,0,2.17-1.39,6.34,6.34,0,0,0,1.33-1.19l.42-.5V36.32h-8.09V32.79h11.87V44.16a6.69,6.69,0,0,1-.63.78c-.29.32-.9.9-1.84,1.74a20.78,20.78,0,0,1-3,2.25,18.85,18.85,0,0,1-4.17,1.76,17.83,17.83,0,0,1-5.24.78,17.52,17.52,0,0,1-12.88-5.31,17.52,17.52,0,0,1-5.31-12.88A17.53,17.53,0,0,1,160.36,20.4Z"/><path class="cls-2" d="M222.26,47.45V51H197.48V15.59h24.26v3.56H201.28V30.77h16.41V34.3H201.28V47.45Z"/><path class="cls-2" d="M258.59,15.59V51h-3.28L233.6,22.43V51h-3.8V15.59h3.28l21.74,28.57V15.59Z"/><path class="cls-2" d="M303.56,47.45V51H278.79V15.59h24.26v3.56H282.59V30.77H299V34.3H282.59V47.45Z"/><path class="cls-2" d="M324.51,15.59a11.11,11.11,0,0,1,8.14,3.19,10.68,10.68,0,0,1,3.23,7.93,10.71,10.71,0,0,1-3.24,7.94,11.14,11.14,0,0,1-8.13,3.2h-9.6V51h-3.8V15.59Zm-9.6,3.56V34.3h9.6a7.13,7.13,0,0,0,7.57-7.58,7.12,7.12,0,0,0-7.57-7.57Z"/><path class="cls-2" d="M343.94,15.59h3.8V51h-3.8Z"/></svg>