<svg xmlns="http://www.w3.org/2000/svg" viewBox="0 0 362.52 67.41"><defs><style>.cls-1{fill:#ff9c06;}.cls-2,.cls-3{fill:#fff;}.cls-3{font-size:50.52px;font-family:TTNorms-ExtraBold, TT Norms;font-weight:800;}.cls-4{font-family:TTNorms-Regular, TT Norms;font-weight:400;}</style></defs><g id="SIZE_MARKER" data-name="SIZE MARKER"><circle class="cls-1" cx="57.65" cy="8.1" r="8.1"/><path class="cls-2" d="M5.31,22.14a21.63,21.63,0,0,1,7.93-1.34H21.4V16.2H47.3a12.86,12.86,0,0,1,0-16H18.55a14.62,14.62,0,0,0-8,1.93C7.24,4.24,5.27,8.31,5.31,15.37l0,.83h0Z"/><path class="cls-2" d="M60.41,51.4H16.09V41.8h31A17.59,17.59,0,0,0,52.72,41a10.44,10.44,0,0,0,2.86-1.46c3.13-2.28,4.93-6.52,4.73-13.73H13.24a14.71,14.71,0,0,0-8,1.93C1.81,29.92-.2,34.22,0,41.79H0V67.41H47.18a17.88,17.88,0,0,0,5.64-.81,10.75,10.75,0,0,0,2.86-1.47C58.81,62.85,60.61,58.61,60.41,51.4Z"/><text class="cls-3" transform="translate(79.69 51.83)">CZ <tspan class="cls-4" x="81.83" y="0">GEN EPI</tspan></text></g></svg>