<?xml version="1.0" encoding="UTF-8"?>
<svg viewBox="0 0 369 96"
  xmlns="http://www.w3.org/2000/svg">
  <path d="m165.32 60.283h-24.137l-5.484 13.528h-6.044l20.303-49.008h6.587l20.303 49.008h-6.044l-5.484-13.528zm-2.055-5.1328-10.014-25.252-10.013 25.252h20.027z" clip-rule="evenodd" fill="#fff" fill-rule="evenodd"/>
  <path d="m214.05 29.528-3.584 3.5837c-0.458-0.4391-1.106-0.9891-1.951-1.5369-1.838-1.1927-4.6-2.3693-8.316-2.3693-5.872 0-9.865 3.5843-9.865 7.6711 0 1.6929 0.496 3.0952 1.39 4.2514 0.877 1.1347 2.092 1.974 3.443 2.6436 2.024 1.0029 4.578 1.7198 7.13 2.4364 0.786 0.2208 1.573 0.4418 2.344 0.671 3.37 1.002 6.555 2.1846 8.903 4.1937 2.284 1.9553 3.846 4.7558 3.846 9.2037 0 4.1009-1.53 7.6329-4.384 10.152-2.865 2.5278-7.158 4.1149-12.807 4.1149-5.967 0-10.33-1.9269-13.198-3.8389-1.437-0.9579-2.5-1.9133-3.199-2.6229-0.153-0.1557-0.289-0.2994-0.407-0.4285l3.572-3.5714 0.049 0.0529c0.565 0.5961 1.412 1.3805 2.56 2.162 2.304 1.5682 5.804 3.114 10.623 3.114 3.488 0 6.314-0.9704 8.288-2.6328 1.984-1.6703 3.039-3.9868 3.039-6.5008 0-1.6929-0.496-3.0952-1.39-4.2514-0.878-1.1347-2.092-1.974-3.444-2.6436-2.024-1.0029-4.577-1.7198-7.129-2.4363-0.787-0.221-1.573-0.4419-2.344-0.6711-3.371-1.0019-6.555-2.1846-8.903-4.1936-2.285-1.9554-3.846-4.7559-3.846-9.2038 0-3.5301 1.422-6.7022 4.06-9.0051 2.645-2.309 6.579-3.7987 11.669-3.7987 4.873 0 8.51 1.5635 10.927 3.1175 1.211 0.7783 2.116 1.5544 2.712 2.13 0.076 0.0726 0.146 0.142 0.212 0.2077z" fill="#fff"/>
  <path d="m250.9 55.53h-13.521v18.281h-5.864v-49.008h19.385c9.301 0 16.094 6.8554 16.094 15.363 0 8.5077-6.793 15.363-16.094 15.363zm-13.521-25.594v20.461h13.521c5.72 0 10.23-4.5098 10.23-10.23s-4.51-10.23-10.23-10.23h-13.521z" clip-rule="evenodd" fill="#fff" fill-rule="evenodd"/>
  <path d="m284.73 50.777v17.901h28.884v5.1328h-34.748v-49.008h34.017v5.1328h-28.153v15.708h22.303v5.1328h-22.303z" fill="#fff"/>
  <path d="m332.64 34.779v39.032h-5.864v-49.008h5.322l30.143 39.032v-39.032h5.864v49.008h-5.321l-30.144-39.032z" fill="#fff"/>
  <path d="m93.5 71.69c-6.3518 0-11.5 5.064-11.5 11.311s5.1477 11.31 11.5 11.31c6.3528 0 11.5-5.063 11.5-11.31s-5.1477-11.311-11.5-11.311z" fill="#93C151"/>
  <path d="m59.056 40.715 14.037-29.628 25.273 54.198c-1.6225-0.464-3.3384-0.7128-5.1135-0.7128-8.0438 0-14.872 5.1088-17.303 12.204-0.3691-0.6778-0.7191-1.3756-1.0521-2.0896l-15.841-33.972z" fill="#fff"/>
  <path d="m66.716 3.8319c-9.2833-4.6548-16.398-4.9548-21.813-1.5188-3.3213 2.1059-5.7211 5.4543-7.5473 9.3708l-36.988 79.321 1.742 0.8735c8.8201 4.4229 15.688 4.9209 21.019 1.9898 1.4356-0.7889 2.711-1.803 3.8474-2.9923 1.8126-1.8975 3.2775-4.24 4.4943-6.8495l36.988-79.321-1.7421-0.87349z" fill="#fff"/>
</svg>
