<svg width="37" height="28" viewBox="0 0 37 28" fill="none" xmlns="http://www.w3.org/2000/svg">
    <path d="M0.71543 17.8301C0.71543 15.0973 1.65645 12.1969 3.53848 9.12893C5.44629 6.03518 8.8752 3.21213 13.8252 0.659787L14.7533 2.40002C12.2783 4.15315 10.4479 5.62268 9.26191 6.80862C7.17363 8.94846 6.12949 10.9981 6.12949 12.9574C6.12949 13.6278 6.32285 14.066 6.70957 14.2723C7.09629 14.5043 7.43145 14.6203 7.71504 14.6203C8.69473 14.4914 9.33926 14.427 9.64863 14.427C11.2986 14.427 12.6521 15.0328 13.7092 16.2446C14.7662 17.4305 15.2947 18.8742 15.2947 20.5758C15.2947 22.4836 14.7146 24.0821 13.5545 25.3711C12.3943 26.6344 10.7959 27.266 8.75918 27.266C6.36152 27.266 4.41504 26.4153 2.91973 24.7137C1.4502 22.9864 0.71543 20.6918 0.71543 17.8301ZM22.0623 17.8301C22.0623 14.9426 23.0678 11.9649 25.0787 8.8969C27.0897 5.82893 30.4541 3.08322 35.1721 0.659787L36.1002 2.40002C33.7799 4.02424 32.001 5.4551 30.7635 6.6926C28.5721 8.88401 27.4764 10.9207 27.4764 12.8028C27.4764 13.3442 27.6182 13.7824 27.9018 14.1176C28.1854 14.4528 28.5721 14.6203 29.0619 14.6203C30.0416 14.4914 30.6861 14.427 30.9955 14.427C32.6197 14.427 33.9604 15.0199 35.0174 16.2059C36.1002 17.3918 36.6416 18.8485 36.6416 20.5758C36.6416 22.5867 36.0486 24.211 34.8627 25.4485C33.6768 26.6602 32.0654 27.266 30.0287 27.266C27.7084 27.266 25.8006 26.4153 24.3053 24.7137C22.81 22.9864 22.0623 20.6918 22.0623 17.8301Z" fill="white"/>
</svg>