<svg width="200" height="200" viewBox="0 0 200 200" fill="none" xmlns="http://www.w3.org/2000/svg">
<path fill-rule="evenodd" clip-rule="evenodd" d="M41.2092 57.9633C42.0543 58.5954 42.2649 59.6741 41.8437 60.5196C41.6328 60.7302 41.4202 60.9407 41.2092 61.1767L34.642 65.0226C33.7969 65.4437 32.7431 65.2332 32.3196 64.3904C31.6645 63.5224 32.0861 62.4437 32.9541 61.8092L36.7545 59.6745L32.9541 57.3062C32.0865 56.885 31.6645 55.806 32.3196 54.9609C32.7431 54.0928 33.7969 53.6713 34.642 54.3034L41.2092 57.9633Z" fill="#EAEAEA"/>
<path fill-rule="evenodd" clip-rule="evenodd" d="M169.845 125.963C169 126.595 168.789 127.674 169.21 128.52C169.421 128.73 169.634 128.941 169.845 129.177L176.412 133.023C177.257 133.444 178.311 133.233 178.735 132.39C179.39 131.522 178.968 130.444 178.1 129.809L174.3 127.674L178.1 125.306C178.968 124.885 179.39 123.806 178.735 122.961C178.311 122.093 177.257 121.671 176.412 122.303L169.845 125.963Z" fill="#EAEAEA"/>
<path d="M77.7424 12.5428C78.1659 13.4108 77.5314 14.4669 76.4757 14.6775C75.6096 14.9134 74.5539 14.2563 74.3429 13.4108L73.4978 10.408C73.2873 9.32899 73.919 8.48666 74.7645 8.03976C75.8202 7.82878 76.6883 8.48626 77.1098 9.32899L77.7424 12.5428Z" fill="#EAEAEA"/>
<path d="M83.4657 16.1797C84.5218 15.9667 84.9434 14.9134 84.7328 13.8344C84.5218 12.9663 83.4657 12.3318 82.6206 12.5424L79.4322 13.4104C78.3765 13.8344 77.742 14.6771 78.1655 15.7561C78.3769 16.6242 79.4326 17.2587 80.2753 17.0454L83.4657 16.1797Z" fill="#EAEAEA"/>
<path d="M79.0087 23.8945C80.0647 23.6835 80.4883 22.6048 80.2753 21.7617L79.4322 18.5487C79.2216 17.6803 78.1655 17.0458 77.3204 17.2591C76.2643 17.4697 75.8198 18.5483 76.0538 19.6274L76.8989 22.6048C77.1098 23.6835 78.1655 24.1074 79.0087 23.8945Z" fill="#EAEAEA"/>
<path d="M74.5535 18.5483C75.3967 18.3378 76.0541 17.2587 75.8202 16.3907C75.6092 15.3346 74.5535 14.9134 73.7084 15.1236L70.3324 15.9663C69.4643 16.1797 68.8298 17.2587 69.0408 18.1014C69.2533 19.1805 70.332 19.627 71.3857 19.3911L74.5535 18.5483Z" fill="#EAEAEA"/>
<path fill-rule="evenodd" clip-rule="evenodd" d="M77.3337 180.924C77.3337 179.635 76.9122 178.345 76.0671 177.477C75.199 176.632 73.9324 176 72.6681 176C71.4018 176 70.1351 176.632 69.2667 177.477C68.4216 178.345 68 179.635 68 180.924C68 182.191 68.4216 183.48 69.2667 184.349C70.1351 185.194 71.4014 185.615 72.6681 185.615C73.9324 185.615 75.199 185.194 76.0671 184.349C76.9122 183.48 77.3337 182.191 77.3337 180.924ZM73.5108 180.057C73.7214 180.267 73.7214 180.478 73.7214 180.924C73.7214 181.135 73.7214 181.557 73.5108 181.77C73.3006 181.98 72.879 181.98 72.6681 181.98C72.2445 181.98 72.0339 181.98 71.823 181.77C71.6124 181.557 71.4018 181.135 71.4018 180.924C71.4018 180.478 71.612 180.267 71.823 180.057L71.8241 180.055C72.0347 179.845 72.2453 179.635 72.6681 179.635C72.8786 179.635 73.3002 179.846 73.5108 180.057Z" fill="#EAEAEA"/>
<path d="M150.935 24L151.99 27.2134L155.389 26.1577L156.235 29.5816L152.834 30.4248L151.99 27.2134L148.589 28.292L147.533 25.0786L150.935 24Z" fill="#EAEAEA"/>
<path d="M153.912 33.8491L152.834 30.4248L149.457 31.5038L148.589 28.292L145 29.3711L146.056 32.5591L149.457 31.5038L150.511 34.9301L153.912 33.8491Z" fill="#EAEAEA"/>
<path d="M146.935 172L147.99 175.213L151.389 174.158L152.235 177.582L148.834 178.425L147.99 175.213L144.589 176.292L143.533 173.079L146.935 172Z" fill="#EAEAEA"/>
<path d="M149.912 181.849L148.834 178.425L145.457 179.504L144.589 176.292L141 177.371L142.056 180.559L145.457 179.504L146.511 182.93L149.912 181.849Z" fill="#EAEAEA"/>
<path d="M51.8814 150.922C51.8814 149.866 51.0363 149 50.1912 149H40.6469C39.8018 149 38.9563 149.866 38.9563 150.922C38.9563 151.789 39.8018 152.635 40.6469 152.635H50.1912C51.0363 152.635 51.8814 151.789 51.8814 150.922Z" fill="#EAEAEA"/>
<path d="M45.7358 155.635C45.7358 154.792 44.891 153.925 43.812 153.925H23.8984C22.8451 153.925 22 154.792 22 155.635C22 156.714 22.8451 157.559 23.8984 157.559H43.812C44.8906 157.559 45.7358 156.714 45.7358 155.635Z" fill="#EAEAEA"/>
<path fill-rule="evenodd" clip-rule="evenodd" d="M88.1562 104.192H63.8701L63.5613 105.556C61.9636 112.61 55.9126 117.952 48.5071 117.952C39.8553 117.952 32.75 110.853 32.75 102.223C32.75 93.5937 39.8546 86.4946 48.5071 86.4946C55.9382 86.4946 61.9905 91.8784 63.5593 98.9753L63.8627 100.348H88.1562V60.9357L88.1562 60.9277C88.1514 60.4091 88.3556 59.9099 88.7237 59.5424C89.0919 59.1748 89.5933 58.9699 90.1152 58.9747L90.1232 58.9748H116.152L116.431 57.5641C117.866 50.3038 124.015 44.75 131.568 44.75C140.207 44.75 147.232 51.8369 147.232 60.4788C147.232 69.1207 140.207 76.2076 131.568 76.2076C124.283 76.2076 118.319 71.0333 116.598 64.1454L116.267 62.8196H92.1062V100.348H116.213L116.516 98.9751C118.084 91.8784 124.136 86.4946 131.568 86.4946C140.207 86.4946 147.232 93.5816 147.232 102.223C147.232 110.865 140.207 117.952 131.568 117.952C124.163 117.952 118.112 112.61 116.514 105.556L116.205 104.192H92.1062V141.627H116.213L116.516 140.255C118.081 133.172 124.123 127.867 131.568 127.867C140.219 127.867 147.232 134.874 147.232 143.503C147.232 152.145 140.207 159.232 131.568 159.232C124.163 159.232 118.112 153.89 116.514 146.836L116.205 145.472H90.1231L90.115 145.472C89.0495 145.482 88.1797 144.636 88.1562 143.58V104.192ZM48.5067 90.4326C41.9161 90.4326 36.6989 95.6384 36.6989 102.224C36.6989 108.788 41.8951 114.108 48.5067 114.108C55.0945 114.108 60.4054 108.809 60.4054 102.224C60.4054 95.6176 55.0733 90.4326 48.5067 90.4326ZM131.569 131.712C125 131.712 119.669 136.897 119.669 143.503C119.669 150.088 124.979 155.387 131.569 155.387C138.179 155.387 143.377 150.068 143.377 143.503C143.377 136.918 138.158 131.712 131.569 131.712ZM131.569 90.4326C125 90.4326 119.669 95.6177 119.669 102.224C119.669 108.809 124.979 114.108 131.569 114.108C138.179 114.108 143.377 108.788 143.377 102.224C143.377 95.6382 138.158 90.4326 131.569 90.4326ZM131.569 48.5947C124.979 48.5947 119.669 53.8939 119.669 60.4788C119.669 67.0847 125.001 72.2698 131.569 72.2698C138.158 72.2698 143.377 67.0642 143.377 60.4788C143.377 53.9145 138.179 48.5947 131.569 48.5947Z" fill="#EAEAEA"/>
</svg>
