<svg xmlns="http://www.w3.org/2000/svg"
  xmlns:v="https://vecta.io/nano">
  <path d="M121.949 32.6c0-13.95-9-26.4-22.2-30.9-13.35-4.5-27.9.15-36.3 11.4-7.35-5.55-17.25-6.45-25.5-2.25s-13.5 12.6-13.5 21.9A24.35 24.35 0 0 0 6.149 41c-4.65 5.25-6.75 12.15-6 19.2 1.65 12.45 12.45 21.6 24.9 21.45h13.2c1.35 0 2.4-1.05 2.4-2.4s-1.05-2.4-2.4-2.4h-13.2c-10.35-.15-19.05-7.8-20.25-17.85-.45-5.55 1.35-10.95 4.95-15 3.75-4.05 8.85-6.45 14.4-6.45 2.7 0 4.95-2.4 4.95-5.1.15-10.65 8.85-19.35 19.5-19.35 4.2 0 8.4 1.35 11.7 3.9a5.41 5.41 0 0 0 3 .9h.75c1.35-.15 2.4-.9 3.3-1.95 7.05-9.45 19.5-13.2 30.75-9.45s18.9 14.4 18.9 26.25c0 2.7 2.25 4.8 4.95 4.8 5.55 0 10.8 2.4 14.55 6.45s5.55 9.6 4.95 15.15c-1.35 9.9-9.9 17.55-20.1 17.4h-29.55c-1.35 0-2.4 1.05-2.4 2.4s1.05 2.4 2.4 2.4h29.55c12.45.15 23.1-9 24.9-21.45.9-6.9-1.35-13.95-6-19.2-4.65-5.1-11.25-8.1-18.3-8.1zm-44.85-14.25c5.4-4.65 12.9-5.85 19.35-3.15 6.6 2.7 10.95 8.85 11.55 15.9.15.9.75 1.5 1.65 1.5.45 0 .9-.15 1.2-.6.3-.3.45-.75.45-1.2-.6-8.25-5.85-15.3-13.5-18.45s-16.35-1.8-22.65 3.45c-.3.3-.6.75-.6 1.2s.15.9.45 1.2c.6.6 1.5.75 2.1.15h0zm-30.9 58.2c-1.35 0-2.4 1.05-2.4 2.4s1.05 2.4 2.4 2.4 2.4-1.05 2.4-2.4c.15-1.35-1.05-2.4-2.4-2.4zm25.27-32.63c.893-.893 2.418-.893 3.311 0h0l15 15c.551.551.82 1.303.82 2.03h0l-.022.182c-.217.869-.877 1.529-1.746 1.746a2.44 2.44 0 0 1-2.362-.647h0L75.599 51.36v61.19a2.42 2.42 0 0 1-2.183 2.39h0l-.217.01c-1.314 0-2.4-1.086-2.4-2.4h0V51.509L59.929 62.38a2.43 2.43 0 0 1-2.127.695h0l-.235-.048c-.869-.217-1.529-.877-1.746-1.746a2.44 2.44 0 0 1 .647-2.362h0L71.469 43.92zm-17.02 32.63c1.35 0 2.4 1.05 2.4 2.4s-1.05 2.4-2.4 2.4-2.4-1.05-2.4-2.4 1.05-2.4 2.4-2.4z" fill-rule="evenodd"/>
</svg>
