<svg xmlns="http://www.w3.org/2000/svg"
  xmlns:v="https://vecta.io/nano">
  <path fill-rule="evenodd" d="M121.949 32.6c0-13.95-9-26.4-22.2-30.9-13.35-4.5-27.9.15-36.3 11.4-7.35-5.55-17.25-6.45-25.5-2.25s-13.5 12.6-13.5 21.9A24.35 24.35 0 0 0 6.149 41c-4.65 5.25-6.75 12.15-6 19.2 1.65 12.45 12.45 21.6 24.9 21.45h13.2c1.35 0 2.4-1.05 2.4-2.4s-1.05-2.4-2.4-2.4h-13.2c-10.35-.15-19.05-7.8-20.25-17.85-.45-5.55 1.35-10.95 4.95-15 3.75-4.05 8.85-6.45 14.4-6.45 2.7 0 4.95-2.4 4.95-5.1.15-10.65 8.85-19.35 19.5-19.35 4.2 0 8.4 1.35 11.7 3.9a5.41 5.41 0 0 0 3 .9h.75c1.35-.15 2.4-.9 3.3-1.95 7.05-9.45 19.5-13.2 30.75-9.45s18.9 14.4 18.9 26.25c0 2.7 2.25 4.8 4.95 4.8 5.55 0 10.8 2.4 14.55 6.45s5.55 9.6 4.95 15.15c-1.35 9.9-9.9 17.55-20.1 17.4h-29.55c-1.35 0-2.4 1.05-2.4 2.4s1.05 2.4 2.4 2.4h29.55c12.45.15 23.1-9 24.9-21.45.9-6.9-1.35-13.95-6-19.2-4.65-5.1-11.25-8.1-18.3-8.1zm-44.85-14.25c5.4-4.65 12.9-5.85 19.35-3.15 6.6 2.7 10.95 8.85 11.55 15.9.15.9.75 1.5 1.65 1.5.45 0 .9-.15 1.2-.6.3-.3.45-.75.45-1.2-.6-8.25-5.85-15.3-13.5-18.45s-16.35-1.8-22.65 3.45c-.3.3-.6.75-.6 1.2s.15.9.45 1.2c.6.6 1.5.75 2.1.15h0zm-30.9 58.2c-1.35 0-2.4 1.05-2.4 2.4s1.05 2.4 2.4 2.4 2.4-1.05 2.4-2.4c.15-1.35-1.05-2.4-2.4-2.4zm13.73-13.73l10.87 10.871 2.55 2.359.017-.017.051-.05 2.182-2.144 10.87-10.87a2.44 2.44 0 0 1 2.362-.647c.869.217 1.529.877 1.746 1.746l.022.182c0 .727-.269 1.479-.82 2.03L77.038 79.022l12.741 12.741a2.86 2.86 0 0 1 .813 1.832l.007.199-.022.182c-.217.869-.877 1.529-1.746 1.746a2.44 2.44 0 0 1-2.362-.647h0l-10.87-10.87-2.212-2.173-.038-.038-2.55 2.359-10.87 10.871a2.43 2.43 0 0 1-2.127.695h0l-.235-.048c-.869-.217-1.529-.877-1.746-1.746a2.44 2.44 0 0 1 .647-2.362l1.44-1.44 1.816-1.816 2.102-2.102 1.548-1.548 1.768-1.768 1.28-1.28.882-.882.815-.815.506-.506h0l.29-.29.293-.293L56.469 66.28a2.44 2.44 0 0 1-.647-2.362c.217-.869.877-1.529 1.746-1.746l.235-.048a2.43 2.43 0 0 1 2.127.695l-.001.001zm-5.48 13.73c1.35 0 2.4 1.05 2.4 2.4s-1.05 2.4-2.4 2.4-2.4-1.05-2.4-2.4 1.05-2.4 2.4-2.4z"/>
</svg>
