<svg xmlns="http://www.w3.org/2000/svg" viewBox="0 0 362.52 67.41"><defs><style>.cls-1{fill:#ff9c06;}</style></defs><g id="SIZE_MARKER" data-name="SIZE MARKER"><circle class="cls-1" cx="57.65" cy="8.1" r="8.1"/><path d="M5.31,22.14a21.63,21.63,0,0,1,7.93-1.34H21.4V16.2H47.3a12.86,12.86,0,0,1,0-16H18.55a14.62,14.62,0,0,0-8,1.93C7.24,4.24,5.27,8.31,5.31,15.37l0,.83h0Z"/><path d="M60.41,51.4H16.09V41.8h31A17.59,17.59,0,0,0,52.72,41a10.44,10.44,0,0,0,2.86-1.46c3.13-2.28,4.93-6.52,4.73-13.73H13.24a14.71,14.71,0,0,0-8,1.93C1.81,29.92-.2,34.22,0,41.79H0V67.41H47.18a17.88,17.88,0,0,0,5.64-.81,10.75,10.75,0,0,0,2.86-1.47C58.81,62.85,60.61,58.61,60.41,51.4Z"/><path d="M94.2,41.37a9.81,9.81,0,0,0,7.23,2.88,11.82,11.82,0,0,0,5.08-1.13,11.13,11.13,0,0,0,3.45-2.3L111,39.69l5.56,6.07c-.14.2-.33.45-.58.78a18.71,18.71,0,0,1-1.78,1.7,16.94,16.94,0,0,1-7.28,3.85,20.19,20.19,0,0,1-5.51.75,19.4,19.4,0,0,1-14-5.52,18,18,0,0,1,0-26.37,20.36,20.36,0,0,1,19.38-4.78A17.19,17.19,0,0,1,111.06,18,26.16,26.16,0,0,1,114,20a11,11,0,0,1,1.79,1.78l.57.72-5.82,6.06-.4-.5A10.23,10.23,0,0,0,109,27a15.86,15.86,0,0,0-1.85-1.38,11.08,11.08,0,0,0-2.53-1.08,10.8,10.8,0,0,0-3.17-.49,9.86,9.86,0,0,0-10.12,10.1A9.81,9.81,0,0,0,94.2,41.37Z"/><path d="M120.62,25.06V16.45h27.53v8.61L132.48,43.24h16.19v8.59H119.85V43.24l15.67-18.18Z"/><path d="M169.86,21.26A17.52,17.52,0,0,1,182.74,16a17.26,17.26,0,0,1,5.15.76A15.77,15.77,0,0,1,192,18.52a25.45,25.45,0,0,1,2.83,2.14,11.9,11.9,0,0,1,1.77,1.86l.57.76-2.55,2.27a6.84,6.84,0,0,0-.44-.65,13.37,13.37,0,0,0-1.38-1.45,15.58,15.58,0,0,0-2.36-1.84,15,15,0,0,0-3.34-1.46A14.5,14.5,0,0,0,172.5,23.7a14.26,14.26,0,0,0-4.17,10.44,14.25,14.25,0,0,0,4.17,10.43,13.81,13.81,0,0,0,10.24,4.22,16.14,16.14,0,0,0,4-.5,13.14,13.14,0,0,0,3.16-1.21,24.32,24.32,0,0,0,2.17-1.38,6.62,6.62,0,0,0,1.33-1.2l.42-.49V37.17h-8.09V33.64h11.87V45a7.77,7.77,0,0,1-.63.77,24.18,24.18,0,0,1-1.84,1.74,20.78,20.78,0,0,1-3,2.25,19.57,19.57,0,0,1-9.41,2.54,18.11,18.11,0,0,1-18.19-18.18A17.52,17.52,0,0,1,169.86,21.26Z"/><path d="M231.76,48.3v3.53H207V16.45h24.26V20H210.78V31.62h16.41v3.53H210.78V48.3Z"/><path d="M268.09,16.45V51.83h-3.28L243.1,23.28V51.83h-3.8V16.45h3.28L264.32,45V16.45Z"/><path d="M313.06,48.3v3.53H288.29V16.45h24.26V20H292.09V31.62H308.5v3.53H292.09V48.3Z"/><path d="M334,16.45a11.14,11.14,0,0,1,8.14,3.18,10.68,10.68,0,0,1,3.23,7.93,10.71,10.71,0,0,1-3.24,8A11.14,11.14,0,0,1,334,38.7h-9.6V51.83h-3.8V16.45ZM324.41,20V35.15H334a7.12,7.12,0,0,0,7.57-7.58A7.12,7.12,0,0,0,334,20Z"/><path d="M353.44,16.45h3.8V51.83h-3.8Z"/></g></svg>