<svg width="369" height="96" viewBox="0 0 369 96" fill="none" xmlns="http://www.w3.org/2000/svg">
<path fill-rule="evenodd" clip-rule="evenodd" d="M165.85 60.2831H141.713L136.229 73.8111H130.185L150.488 24.8036H157.076L177.379 73.8111H171.335L165.85 60.2831ZM163.796 55.1503L153.782 29.8978L143.768 55.1503H163.796Z" fill="black"/>
<path d="M214.573 29.5276L210.989 33.1113C210.532 32.6722 209.883 32.1222 209.039 31.5744C207.2 30.3817 204.438 29.2051 200.722 29.2051C194.85 29.2051 190.857 32.7894 190.857 36.8762C190.857 38.5691 191.354 39.9714 192.247 41.1276C193.125 42.2623 194.339 43.1016 195.691 43.7712C197.715 44.7741 200.268 45.491 202.82 46.2076C203.606 46.4284 204.394 46.6494 205.164 46.8786C208.535 47.8806 211.719 49.0632 214.067 51.0723C216.352 53.0276 217.913 55.8281 217.913 60.276C217.913 64.3769 216.383 67.9089 213.529 70.4275C210.664 72.9553 206.371 74.5424 200.722 74.5424C194.755 74.5424 190.392 72.6155 187.524 70.7035C186.087 69.7456 185.024 68.7902 184.326 68.0806C184.172 67.9249 184.037 67.7812 183.919 67.6521L187.49 64.0807L187.54 64.1336C188.105 64.7297 188.952 65.5141 190.1 66.2956C192.403 67.8638 195.904 69.4096 200.722 69.4096C204.21 69.4096 207.037 68.4392 209.011 66.7768C210.994 65.1065 212.049 62.79 212.049 60.276C212.049 58.5831 211.553 57.1808 210.659 56.0246C209.782 54.8899 208.567 54.0506 207.216 53.381C205.192 52.3781 202.638 51.6612 200.087 50.9447C199.3 50.7237 198.513 50.5028 197.742 50.2736C194.372 49.2717 191.187 48.089 188.839 46.08C186.555 44.1246 184.993 41.3241 184.993 36.8762C184.993 33.3461 186.415 30.174 189.053 27.8711C191.698 25.5621 195.632 24.0724 200.722 24.0724C205.595 24.0724 209.232 25.6359 211.65 27.1899C212.86 27.9682 213.765 28.7443 214.362 29.3199C214.437 29.3925 214.507 29.4619 214.573 29.5276Z" fill="black"/>
<path fill-rule="evenodd" clip-rule="evenodd" d="M251.426 55.53H237.905V73.8111H232.041V24.8036H251.426C260.727 24.8036 267.52 31.659 267.52 40.1668C267.52 48.6745 260.727 55.53 251.426 55.53ZM237.905 29.9364V50.3972H251.426C257.147 50.3972 261.656 45.8874 261.656 40.1668C261.656 34.4462 257.147 29.9364 251.426 29.9364H237.905Z" fill="black"/>
<path d="M285.259 50.7769V68.6783H314.143V73.8111H279.395V24.8036H313.412V29.9364H285.259V45.6441H307.562V50.7769H285.259Z" fill="black"/>
<path d="M333.166 34.7788V73.8111H327.302V24.8036H332.624L362.768 63.8359V24.8036H368.632V73.8111H363.31L333.166 34.7788Z" fill="black"/>
<path d="M94.0258 71.6897C87.6741 71.6897 82.5264 76.7538 82.5264 83.0011C82.5264 89.2483 87.6741 94.3114 94.0258 94.3114C100.379 94.3114 105.526 89.2483 105.526 83.0011C105.526 76.7538 100.379 71.6897 94.0258 71.6897Z" fill="#93C151"/>
<path d="M59.582 40.715L73.6188 11.0868L98.892 65.2852C97.2695 64.8212 95.5536 64.5724 93.7785 64.5724C85.7347 64.5724 78.9066 69.6812 76.4756 76.7767C76.1065 76.0989 75.7564 75.4011 75.4235 74.6871L59.582 40.715Z" fill="black"/>
<path d="M67.2427 3.83189C57.9593 -0.822958 50.845 -1.12289 45.4298 2.31314C42.1085 4.419 39.7087 7.76741 37.8824 11.6839L0.894531 91.0047L2.63648 91.8782C11.4566 96.3011 18.3241 96.7991 23.655 93.868C25.0907 93.0791 26.366 92.065 27.5024 90.8757C29.3151 88.9782 30.78 86.6357 31.9968 84.0262L68.9847 4.70538L67.2427 3.83189Z" fill="black"/>
</svg>
