<svg id="E_CZ_GEN_EPI" data-name="E CZ GEN EPI" xmlns="http://www.w3.org/2000/svg" viewBox="0 0 38 38"><defs><style>.cls-1{fill:#ff9c06;}</style></defs><circle class="cls-1" cx="31.19" cy="4.61" r="4.56"/><path d="M5.24,12.5a12.15,12.15,0,0,1,4.46-.75h4.59V9.16H25.37a7.23,7.23,0,0,1,0-9H12.69A8.27,8.27,0,0,0,8.18,1.25c-1.86,1.19-3,3.47-2.94,7.44v.47h0Z"/><path d="M32.74,29H11.3v-5.4h14a9.92,9.92,0,0,0,3.17-.45A6,6,0,0,0,30,22.28c1.76-1.29,2.77-3.67,2.66-7.72H9.7a8.32,8.32,0,0,0-4.5,1.08c-1.93,1.24-3.06,3.65-2.94,7.91h0V38H25.31a10.14,10.14,0,0,0,3.16-.45,5.71,5.71,0,0,0,1.61-.83C31.84,35.39,32.86,33,32.74,29Z"/></svg>