<svg xmlns="http://www.w3.org/2000/svg">
<path fill-rule="evenodd" clip-rule="evenodd" d="M22.0454 20.034C23.1789 20.034 24.0674 20.9179 24.0674 22.0457C24.0674 23.1855 23.1789 24.0783 22.0454 24.0783C20.9185 24.0783 20.0036 23.1669 20.0036 22.0457C20.0036 20.9179 20.9009 20.034 22.0454 20.034ZM3.97555 15.0354C2.84204 15.0354 1.95356 14.1426 1.95356 13.0038C1.95356 11.875 2.84204 10.991 3.97555 10.991C5.1212 10.991 6.01851 11.875 6.01851 13.0038C6.01851 14.1239 5.10133 15.0354 3.97555 15.0354ZM22.0454 1.9206C23.1789 1.9206 24.0674 2.81336 24.0674 3.9532C24.0674 5.08206 23.1789 5.96494 22.0454 5.96494C20.9009 5.96494 20.0036 5.08206 20.0036 3.9532C20.0036 2.83313 20.9185 1.9206 22.0454 1.9206ZM22.0454 10.991C23.1789 10.991 24.0674 11.875 24.0674 13.0038C24.0674 14.1426 23.1789 15.0354 22.0454 15.0354C20.9185 15.0354 20.0036 14.1239 20.0036 13.0038C20.0036 11.875 20.9009 10.991 22.0454 10.991ZM18.2685 13.9735C18.7288 15.737 20.264 16.957 22.0454 16.957C24.2263 16.957 26 15.1836 26 13.0038C26 10.823 24.2263 9.04954 22.0454 9.04954C20.2552 9.04954 18.72 10.2772 18.2685 12.0529H14.0071V5.00519H18.2928C18.7796 6.72045 20.3049 7.90751 22.0454 7.90751C24.2263 7.90751 26 6.13405 26 3.9532C26 1.77345 24.2263 0 22.0454 0C20.2409 0 18.6648 1.28918 18.2454 3.0835H13.0315H13.0226C12.7677 3.0835 12.5271 3.18123 12.345 3.35912C12.1595 3.53922 12.0569 3.7808 12.0536 4.05423V12.0529H7.75243C7.30101 10.2772 5.76576 9.04954 3.97555 9.04954C1.78469 9.04954 0 10.823 0 13.0038L0.00110364 13.1686H0.00551844C0.0916075 15.2725 1.83988 16.957 3.97555 16.957C5.75803 16.957 7.29329 15.737 7.75243 13.9735H12.0547V21.9754C12.0635 22.5003 12.4973 22.9231 13.0215 22.9231H13.0304H18.2476C18.6692 24.7141 20.2442 26 22.0454 26C24.2263 26 26 24.2255 26 22.0457C26 19.8659 24.2263 18.0914 22.0454 18.0914C20.3049 18.0914 18.7796 19.2785 18.2928 20.9948V21.0014H14.0071V13.9735H18.2685Z"/>
</svg>
