<svg width="22" height="22" viewBox="0 0 22 22" fill="inherit" xmlns="http://www.w3.org/2000/svg">
<path d="M10.02 8.6501C10.02 9.17477 10.4453 9.6001 10.97 9.6001C11.4946 9.6001 11.92 9.17477 11.92 8.6501V2.5501C11.92 2.02543 11.4946 1.6001 10.97 1.6001C10.4453 1.6001 10.02 2.02543 10.02 2.5501L10.02 8.6501Z" />
<path d="M9.78926 16.8661L6.60299 19.7691V16.8661H3.69173V5.08277H6.89997C7.3094 5.08277 7.63997 4.75086 7.63997 4.34143C7.63997 3.932 7.3094 3.6001 6.89997 3.6001H3.26997C2.69007 3.6001 2.21997 4.0702 2.21997 4.6501V17.275C2.21997 17.8549 2.69007 18.325 3.26997 18.325H5.13123V20.7294C5.13123 21.6435 6.21833 22.121 6.89154 21.5026L10.3509 18.325L18.7257 18.3265C19.3058 18.3267 19.776 17.8564 19.7759 17.2763L19.7741 4.6501C19.7741 4.0702 19.304 3.6001 18.7241 3.6001H15.3113C14.9019 3.6001 14.57 3.932 14.57 4.34143C14.57 4.75086 14.9019 5.08277 15.3113 5.08277H18.3023V16.8661H9.78926Z" />
<path d="M11.8447 13.7614L11.8407 13.7654C11.6328 13.9776 11.3146 14.1006 10.9692 14.1001C10.6242 14.0996 10.3002 13.9758 10.0841 13.758C9.85513 13.5275 9.71991 13.2 9.71991 12.8616C9.71991 12.5356 9.85891 12.1985 10.084 11.9714C10.3193 11.735 10.6438 11.6001 10.9699 11.6001C11.2891 11.6001 11.6119 11.7334 11.8536 11.9763L11.855 11.9777C12.0857 12.2078 12.2199 12.5314 12.2199 12.8616C12.2199 13.1951 12.086 13.5206 11.8447 13.7614Z" />
</svg>
