<svg width="22" height="22" viewBox="0 0 20 20" fill="none" xmlns="http://www.w3.org/2000/svg" fillcontrast="white">
    <path fill-rule="evenodd" clip-rule="evenodd" d="M10 .375c5.307 0 9.625 4.318 9.625 9.625S15.307 19.625 10 19.625.375 15.307.375 10 4.693.375 10 .375zm0 1.375c-4.549 0-8.25 3.701-8.25 8.25 0 4.549 3.701 8.25 8.25 8.25 4.549 0 8.25-3.701 8.25-8.25 0-4.549-3.701-8.25-8.25-8.25zm-1.22 9.202c.044.824.644 1.193 1.22 1.193.564 0 1.183-.419 1.22-1.198l.243-5.671v-.022c0-.807-.656-1.463-1.463-1.463a1.464 1.464 0 00-1.463 1.485l.244 5.676zM10 4.815a.44.44 0 01.44.43l-.243 5.656c-.01.2-.141.22-.197.22-.128 0-.187-.032-.196-.218L9.56 5.245a.44.44 0 01.439-.43zm0 8.13c-.455 0-.9.185-1.223.507-.32.321-.505.766-.505 1.22 0 .457.184.902.505 1.223.32.32.766.505 1.223.505a1.724 1.724 0 001.727-1.728A1.736 1.736 0 0010 12.944zm.494 2.228c-.255.258-.733.258-.993-.002a.71.71 0 010-.995.711.711 0 01.499-.207.709.709 0 01.704.703.706.706 0 01-.21.5z" fill="#FFFFFF"></path>
</svg>