<svg width="32" height="32" viewBox="0 0 32 32" fill="none" xmlns="http://www.w3.org/2000/svg">
<path fill-rule="evenodd" clip-rule="evenodd" d="M3.95879 7.3381H17.797L17.8366 7.37688C18.2463 5.96999 19.5573 5 21.049 5C22.5407 5 23.8517 5.96999 24.2615 7.37688H27.6815C28.0891 7.24548 28.5365 7.38699 28.7891 7.72717C29.0417 8.06735 29.0417 8.5285 28.7891 8.86868C28.5365 9.20886 28.0891 9.35037 27.6815 9.21897H24.2615C23.8543 10.6343 22.5284 11.6047 21.0292 11.5846C19.5345 11.5914 18.2159 10.6264 17.797 9.21897H3.95879C3.42927 9.21897 3 8.79792 3 8.27854C3 7.75915 3.42927 7.3381 3.95879 7.3381ZM20.9832 9.68432C21.7898 9.68788 22.4472 9.05033 22.4526 8.25915L22.4921 8.24945C22.4759 7.44852 21.8064 6.8091 20.9897 6.81456C20.1831 6.81458 19.5286 7.45504 19.5268 8.24624C19.525 9.03744 20.1765 9.68076 20.9832 9.68432ZM3.93902 14.8101H6.52875V14.8004C6.94506 13.3971 8.2561 12.432 9.74614 12.432C11.2362 12.432 12.5472 13.3971 12.9635 14.8004H28.0569C28.5755 14.8004 28.996 15.2128 28.996 15.7214C28.996 16.2301 28.5755 16.6425 28.0569 16.6425H12.9635C12.5535 18.0434 11.2469 19.0085 9.76097 19.0081C8.27005 19.013 6.95409 18.0538 6.52875 16.6522H3.93902C3.42041 16.6522 3 16.2398 3 15.7311C3 15.2224 3.42041 14.8101 3.93902 14.8101ZM10.2919 17.0726C10.8419 16.846 11.1982 16.3163 11.1942 15.7311C11.1888 14.9371 10.531 14.2962 9.72143 14.2962C9.12485 14.2963 8.5872 14.6493 8.35983 15.1903C8.13247 15.7313 8.26029 16.3534 8.68356 16.7657C9.10682 17.1781 9.74191 17.2993 10.2919 17.0726ZM13.2996 22.7922H3.93902C3.60354 22.7922 3.29355 22.9678 3.12581 23.2527C2.95806 23.5377 2.95806 23.8888 3.12581 24.1738C3.29355 24.4588 3.60354 24.6343 3.93902 24.6343H13.3095C13.7312 26.0397 15.048 27.0035 16.5417 26.9999C18.0204 27.0097 19.3286 26.0621 19.7541 24.6731H28.0412C28.5707 24.6731 29 24.252 29 23.7327C29 23.2133 28.5707 22.7922 28.0412 22.7922H19.7541C19.3378 21.3889 18.0268 20.4238 16.5368 20.4238C15.0467 20.4238 13.7357 21.3889 13.3194 22.7922H13.2996ZM17.9651 23.7133C17.9651 24.5164 17.3012 25.1675 16.4824 25.1675C15.6635 25.1675 14.9997 24.5164 14.9997 23.7133C14.9997 22.9101 15.6635 22.259 16.4824 22.259C17.3012 22.259 17.9651 22.9101 17.9651 23.7133Z"/>
</svg>
