<?xml version="1.0" encoding="UTF-8"?>
<svg width="150px" height="150px" viewBox="0 0 150 150" version="1.1" xmlns="http://www.w3.org/2000/svg" xmlns:xlink="http://www.w3.org/1999/xlink">
    <title>Illustrations / ImgUploadFailPrimary</title>
    <g id="Illustrations-/-ImgUploadFailPrimary" stroke="none" stroke-width="1" fill="none" fill-rule="evenodd">
        <path d="M123.6,50.55 C123.6,36.6 114.6,24.15 101.4,19.65 C88.05,15.15 73.5,19.8 65.1,31.05 C57.75,25.5 47.85,24.6 39.6,28.8 C31.35,33 26.1,41.4 26.1,50.7 C19.05,50.7 12.45,53.7 7.8,58.95 C3.15,64.2 1.05,71.1 1.8,78.15 C3.45,90.6 14.25,99.75 26.7,99.6 L39.9,99.6 C41.25,99.6 42.3,98.55 42.3,97.2 C42.3,95.85 41.25,94.8 39.9,94.8 L26.7,94.8 C16.35,94.65 7.65,87 6.45,76.95 C6,71.4 7.8,66 11.4,61.95 C15.15,57.9 20.25,55.5 25.8,55.5 C28.5,55.5 30.75,53.1 30.75,50.4 C30.9,39.75 39.6,31.05 50.25,31.05 C54.45,31.05 58.65,32.4 61.95,34.95 C62.85,35.55 63.9,35.85 64.95,35.85 L65.7,35.85 C67.05,35.7 68.1,34.95 69,33.9 C76.05,24.45 88.5,20.7 99.75,24.45 C111,28.2 118.65,38.85 118.65,50.7 C118.65,53.4 120.9,55.5 123.6,55.5 C129.15,55.5 134.4,57.9 138.15,61.95 C141.9,66 143.7,71.55 143.1,77.1 C141.75,87 133.2,94.65 123,94.5 L93.45,94.5 C92.1,94.5 91.05,95.55 91.05,96.9 C91.05,98.25 92.1,99.3 93.45,99.3 L123,99.3 C135.45,99.45 146.1,90.3 147.9,77.85 C148.8,70.95 146.55,63.9 141.9,58.65 C137.25,53.55 130.65,50.55 123.6,50.55 Z M78.75,36.3 C84.15,31.65 91.65,30.45 98.1,33.15 C104.7,35.85 109.05,42 109.65,49.05 C109.8,49.95 110.4,50.55 111.3,50.55 C111.75,50.55 112.2,50.4 112.5,49.95 C112.8,49.65 112.95,49.2 112.95,48.75 C112.35,40.5 107.1,33.45 99.45,30.3 C91.8,27.15 83.1,28.5 76.8,33.75 C76.5,34.05 76.2,34.5 76.2,34.95 C76.2,35.4 76.35,35.85 76.65,36.15 C77.25,36.75 78.15,36.9 78.75,36.3 L78.75,36.3 Z M47.85,94.5 C46.5,94.5 45.45,95.55 45.45,96.9 C45.45,98.25 46.5,99.3 47.85,99.3 C49.2,99.3 50.25,98.25 50.25,96.9 C50.4,95.55 49.2,94.5 47.85,94.5 Z M61.5803301,80.7696699 L72.45,91.641 L75,94 C75,94 75.0056711,93.9944285 75.0170132,93.9832854 L75.0680529,93.9331418 C75.2835539,93.7214241 76.0108696,93.0068768 77.25,91.7895 L88.1196699,80.9196699 C88.751104,80.2882358 89.61925,80.0567302 90.4819017,80.2723931 C91.3506156,80.4895716 92.0104284,81.1493844 92.2276069,82.0180983 L92.25,82.2 C92.25,82.927338 91.9814877,83.6791725 91.4303301,84.2303301 L78.6892831,96.9721537 L91.4303301,109.713379 C91.9313825,110.214432 92.1988437,110.881333 92.2433321,111.544906 L92.25,111.743709 L92.2276069,111.925611 C92.0104284,112.794325 91.3506156,113.454138 90.4819017,113.671316 C89.61925,113.886979 88.751104,113.655474 88.1196699,113.024039 L88.1196699,113.024039 L77.25,102.154209 C75.9456522,100.87276 75.2084121,100.148463 75.0382798,99.9813171 L75,99.9437094 L72.45,102.302709 L61.5803301,113.174039 C61.0062991,113.74807 60.2366384,113.991582 59.4533212,113.869082 L59.4533212,113.869082 L59.2180983,113.821316 C58.3493844,113.604138 57.6895716,112.944325 57.4723931,112.075611 C57.2567302,111.212959 57.4882358,110.344813 58.1196699,109.713379 C58.6108574,109.222192 59.0908815,108.742168 59.5597422,108.273307 L61.3756473,106.457402 C62.107467,105.725582 62.8082774,105.024772 63.4780784,104.354971 L65.0260631,102.806986 C65.6462493,102.1868 66.2354261,101.597623 66.7935937,101.039456 L68.073658,99.7593913 C68.3787896,99.4542597 68.6727578,99.1602914 68.9555627,98.8774865 L69.7704873,98.0625619 C69.9441394,97.8889098 70.1128301,97.7202191 70.2765592,97.55649 L70.2765592,97.55649 L70.5666726,97.2663766 C70.6592055,97.1738438 70.7569263,97.0761229 70.8598351,96.9732141 L58.1196699,84.2303301 C57.4882358,83.598896 57.2567302,82.73075 57.4723931,81.8680983 C57.6895716,80.9993844 58.3493844,80.3395716 59.2180983,80.1223931 L59.4533212,80.0746273 C60.2366384,79.9521273 61.0062991,80.1956389 61.5803301,80.7696699 Z M56.1,94.5 C57.45,94.5 58.5,95.55 58.5,96.9 C58.5,98.25 57.45,99.3 56.1,99.3 C54.75,99.3 53.7,98.25 53.7,96.9 C53.7,95.55 54.75,94.5 56.1,94.5 Z" id="Shape" fill="#3867FA"></path>
    </g>
</svg>